<?xml version="1.0" encoding="utf-8"?>
<!-- Generator: Adobe Illustrator 18.0.0, SVG Export Plug-In . SVG Version: 6.00 Build 0)  -->
<!DOCTYPE svg PUBLIC "-//W3C//DTD SVG 1.1//EN" "http://www.w3.org/Graphics/SVG/1.1/DTD/svg11.dtd">
<svg version="1.1" id="Layer_1" xmlns="http://www.w3.org/2000/svg" xmlns:xlink="http://www.w3.org/1999/xlink" x="0px" y="0px"
	 viewBox="0 0 200 200" enable-background="new 0 0 200 200" xml:space="preserve">
<rect x="-96" y="-81" display="none" fill="#20C4C4" width="403" height="359"/>
<g id="Enteradillo_1_">
	<g id="Enteradillo">
		<path d="M155,74.7c0-0.1,0-0.3,0-0.4c-0.5-11.7-22.2-18.1-42.6-20.1c-2-0.2-3.8,1.3-4,3.3c-0.2,2,1.3,3.8,3.3,4
			c24,2.4,35.4,9,35.9,12.9l-0.3,1.5c-2.7,5.6-22.4,12.7-52.1,12.7c-29.8,0-49.6-7.2-52.1-12.7l-0.3-1.5c0.5-4.3,14-11.2,38.9-13.1
			c2-0.2,3.6-1.9,3.4-4c-0.2-2-1.9-3.6-4-3.4C59,55.7,35.4,62.1,35.4,74.7c0,0.1,0,0.3,0,0.4c0,0.9,0.2,1.8,0.5,2.7l19.9,104
			c0.4,10,15.4,16.3,39.4,16.3c24,0,39-6.2,39.3-16.3l19.9-103.9C154.8,76.9,155,75.8,155,74.7z M127.2,180.7c0,0.2-0.1,0.5-0.1,0.7
			c0,3.7-10.2,9.3-32,9.3c-21.8,0-32-5.5-32-9.3c0-0.2,0-0.5-0.1-0.7l-18-93.8c11.3,6,30.7,9.1,50,9.1c19.3,0,38.7-3.1,50-9.1
			L127.2,180.7z"/>
		<path d="M164.5,4.6c-0.6-2-2.6-3.1-4.6-2.5L111.7,16c-1.1,0.3-1.9,1.1-2.3,2c-0.1,0.2-0.2,0.4-0.3,0.6L88.6,70.6
			c-0.7,1.9,0.2,4,2.1,4.8c0.4,0.2,0.9,0.3,1.3,0.3c1.5,0,2.9-0.9,3.4-2.3l19.9-50.7L162,9.2C163.9,8.6,165.1,6.6,164.5,4.6z"/>
	</g>
	<path display="none" d="M40.3,81.3c0,0,42.4,25.4,110.2,0c0,0-19.9,102.6-24,106.6c-4.1,4.1-70,6.1-70-3
		c0-9.1-20.6-107.2-20.6-107.2"/>
</g>
<g id="Palomitero_1_" display="none">
	<g id="Palomitero" display="inline">
		<g>
			<path fill="#FFFFFF" d="M178.9,75.4c0.1-1.1,0.1-2.3,0.1-3.4c0-21.6-15.9-40-37.3-43.7c-7.3-15.5-23-25.4-40.5-25.4
				C87.7,2.9,74.8,9,66.3,19.4c-0.4,0-0.8,0-1.2,0C40.2,19.4,20,39.3,20,63.8c0,5.2,0.9,10.3,2.7,15.2c-0.2,1.4-0.3,2.9-0.3,4.3
				c0,4.4,21.5,78.9,30.7,110.7c0.5,1.8,2.2,3,4,3h89.7c1.9,0,3.5-1.3,4-3.1C180,85.6,180,84.1,180,83.4
				C180,80.6,179.7,77.9,178.9,75.4z M28.3,63.8c0-19.9,16.5-36.1,36.9-36.1c0.8,0,1.7,0,2.8,0.1c1.4,0.1,2.8-0.5,3.7-1.7
				c6.8-9.3,17.9-14.9,29.6-14.9c15,0,28.2,8.8,33.8,22.4c0.6,1.4,1.9,2.4,3.4,2.6c14.2,1.7,25.8,11.3,30.3,23.9
				c-5-3.9-11.2-6.2-18-6.2c-10.2,0-19.4,5.3-24.7,13.5c-5.3-8.2-14.5-13.5-24.7-13.5C91,54,81.8,59.3,76.5,67.5
				C71.2,59.3,62,54,51.8,54c-9.5,0-18,4.6-23.4,11.6C28.3,65,28.3,64.4,28.3,63.8z M143.6,188.7H60.2C48.4,148,31.5,88.6,30.7,83.2
				c0-0.9,0.1-1.8,0.2-2.6c0.1-0.3,0.2-0.6,0.3-0.9c2.1-9.6,10.7-16.6,20.6-16.6c10,0,18.7,7.1,20.6,16.9c0.4,2,2.1,3.4,4.1,3.4
				s3.7-1.4,4.1-3.4c1.9-9.8,10.6-16.9,20.6-16.9s18.7,7.1,20.6,16.9c0.4,2,2.1,3.4,4.1,3.4c2,0,3.7-1.4,4.1-3.4
				c1.9-9.8,10.6-16.9,20.6-16.9c9.2,0,17.2,5.9,20,14.6c0.1,0.4,0.3,0.7,0.5,1c0.3,1.4,0.5,2.8,0.5,4.3
				C170.5,88.4,154.7,147.6,143.6,188.7z"/>
			<path fill="#FFFFFF" d="M101.2,101.5c-23,0-41,12.1-41,27.4c0,15.4,18,27.4,41,27.4s41-12.1,41-27.4
				C142.2,113.5,124.2,101.5,101.2,101.5z M101.2,148c-17.7,0-32.7-8.7-32.7-19.1c0-10.4,15-19.1,32.7-19.1
				c17.7,0,32.7,8.7,32.7,19.1C133.9,139.3,118.9,148,101.2,148z"/>
		</g>
	</g>
	<path display="inline" fill="#FFFFFF" d="M25.6,80.1c0,0,26.8-41.9,50.8-3.3c0,0,26-41.5,49.6,0.4c0,0,25.2-41.5,49.2,2.8
		l-11.4,47.2l-26.8,1.7c0,0-23.2-57-74.4-1.7L39,128.9L25.6,80.1z"/>
	<path display="inline" fill="#FFFFFF" d="M62.6,124.8l-25.4-4.9L58.1,189l87.8,2.8l18.2-68.4l-19.6,2.8
		C144.5,126.2,88,191.4,62.6,124.8z"/>
</g>
<g id="Legend" display="none">
	<path id="Leyenda" display="inline" fill="#FFFFFF" d="M157.3,55c2.7-2.6,3.7-5.7,2.8-8.4c-0.9-2.8-3.5-4.6-7.2-5.2l-25-3.6
		c-3.5-0.5-8-3.8-9.6-7L107.2,8.2c-1.6-3.3-4.3-5.3-7.2-5.3s-5.5,1.9-7.2,5.3L81.7,30.8c-1.5,3.1-6.1,6.5-9.6,7l-25,3.6
		c-3.7,0.5-6.3,2.4-7.2,5.2C39,49.4,40,52.4,42.7,55l18.1,17.6c2.5,2.4,4.2,7.8,3.7,11.3l-4.3,24.9c-0.7,3.8,0.5,6.1,1.5,7.4
		c2.2,2.6,6.1,3.1,10,1l11.6-6.1l-5.8,26.5h-8.7c-5.7,0-10.3,4.6-10.3,10.3v38.8c0,5.7,4.6,10.3,10.3,10.3h62.4
		c5.7,0,10.3-4.6,10.3-10.3V148c0-5.7-4.6-10.3-10.3-10.3h-8.7l-5.8-26.5l11.6,6.1c1.7,0.9,3.3,1.3,4.8,1.3c2.1,0,3.9-0.8,5.2-2.3
		c1.1-1.3,2.2-3.6,1.6-7.4l-4.3-24.9c-0.6-3.5,1.2-8.8,3.7-11.3L157.3,55z M134.1,148v38.8c0,1.6-1.3,2.9-2.9,2.9H68.8
		c-1.6,0-2.9-1.3-2.9-2.9V148c0-1.6,1.3-2.9,2.9-2.9h62.4C132.8,145.1,134.1,146.4,134.1,148z M105.9,105.8l2.3,1.2l6.6,30.2H85.2
		l6.6-30.2l2.3-1.2c1.5-0.8,3.6-1.2,5.9-1.2C102.3,104.6,104.4,105.1,105.9,105.8z M134.1,67.3c-4.3,4.1-6.8,12-5.8,17.8l4.3,24.9
		c0.1,0.4,0.1,0.7,0.1,1c-0.2-0.1-0.5-0.2-0.9-0.4l-22.3-11.7c-2.6-1.3-5.9-2.1-9.4-2.1c-3.5,0-6.8,0.7-9.4,2.1l-22.3,11.7
		c-0.4,0.2-0.7,0.3-0.9,0.4c0-0.2,0-0.6,0.1-1l4.3-24.9c1-5.9-1.5-13.7-5.8-17.8L47.9,49.7c-0.3-0.3-0.5-0.5-0.6-0.7
		c0.2-0.1,0.5-0.2,0.9-0.2l25-3.6c5.9-0.9,12.5-5.7,15.2-11l11.2-22.6c0.2-0.4,0.3-0.6,0.5-0.8c0.1,0.2,0.3,0.5,0.5,0.8l11.2,22.6
		c2.6,5.3,9.3,10.2,15.2,11l25,3.6c0.4,0.1,0.7,0.1,0.9,0.2c-0.1,0.2-0.3,0.4-0.6,0.7L134.1,67.3z"/>
	<polygon display="inline" fill="#FFFFFF" points="43.1,46.9 84,39.7 100,6.8 120.6,38.8 156.9,46.9 129.3,75.4 135.2,113 100,100 
		65.3,113 69.1,77.2 	"/>
</g>
<g id="Director_1_" display="none">
	<g id="Director" display="inline">
		<path fill="#FFFFFF" d="M88.7,146.1c-0.8-0.7-1.9-1-2.9-0.9L63,147.8c-1.9,0.2-3.3,1.8-3.3,3.7v6.8c0,4,3.3,7.3,7.3,7.3h15.6
			c4,0,7.3-3.3,7.3-7.3v-9.4C89.9,147.8,89.5,146.8,88.7,146.1z M82.4,158.1H67.2v-3.2l15.2-1.8V158.1z"/>
		<path fill="#FFFFFF" d="M182.6,75.9c-2.2-5.5-22.4-53.5-36.5-53.5c-0.9,0-1.7,0.2-2.5,0.5C142.9,23.2,4.4,133.5,4.4,133.5
			c-1.4,1.1-1.8,2.9-1.1,4.5l9.3,20.5c0.7,1.5,2.2,2.4,3.9,2.2l29.8-3.4v8.5c0,6.6,5.3,11.9,11.9,11.9h33.2
			c6.6,0,11.9-5.3,11.9-11.9v-15c87.4-9,88.1-9.3,88.8-9.6C206.4,135.2,185,82,182.6,75.9z M11.4,137.5l17.9-14.1
			c0.1-0.1,0.2-0.1,0.2-0.2c2.7,4.9,7.6,14.9,9.3,27.3l-20.4,2.4L11.4,137.5z M189,134c-7.5,0.9-56.8,6.1-89.9,9.5
			c-1.9,0.2-3.4,1.8-3.4,3.7v18.4c0,2.4-2,4.4-4.4,4.4H58.2c-2.4,0-4.4-2-4.4-4.4V153c0-1.1-0.5-2.1-1.3-2.8c-0.7-0.6-1.6-1-2.5-1
			c-0.1,0-0.3,0-0.4,0l-3.4,0.4c-1.9-14.6-7.8-26.1-10.8-31.2c38.9-31.1,103-82.3,110.9-88.4c4.1,1.6,16.7,18.3,29.2,48.7
			C188.1,109.3,190.9,130,189,134z"/>
	</g>
	<path display="inline" fill="#FFFFFF" d="M33,115.6l111.8-90.2c0,0,46,47.9,46,112.6l-90.9,7.1l-57.1,7L33,115.6z"/>
</g>
<g id="enthusiast_1_" display="none">
	<g id="enthusiast" display="inline">
		<g>
			<path fill="#FFFFFF" d="M62.1,147.5H28.3c-4.4,0-8-3.3-8-7.3v-32.4c0-4,3.6-7.3,8-7.3h33.9c4.4,0,8,3.3,8,7.3v32.4
				C70.1,144.3,66.5,147.5,62.1,147.5z M27.9,139.9c0.1,0,0.2,0.1,0.3,0.1h33.9c0.1,0,0.3,0,0.3-0.1v-31.6c-0.1,0-0.2-0.1-0.3-0.1
				H28.3c-0.1,0-0.3,0-0.3,0.1V139.9z"/>
		</g>
		<g>
			<path fill="#FFFFFF" d="M171.7,147.5h-33.9c-4.4,0-8-3.3-8-7.3v-32.4c0-4,3.6-7.3,8-7.3h33.9c4.4,0,8,3.3,8,7.3v32.4
				C179.7,144.3,176.1,147.5,171.7,147.5z M137.5,139.9c0.1,0,0.2,0.1,0.3,0.1h33.9c0.1,0,0.3,0,0.3-0.1v-31.6
				c-0.1,0-0.2-0.1-0.3-0.1h-33.9c-0.1,0-0.3,0-0.3,0.1V139.9z"/>
		</g>
		<path fill="#FFFFFF" d="M183.9,88.7l-75.4-37.8l6.4-3.2c0.7-0.3,7.3-2.9,12-0.9c1.9,0.8,3.3,2.3,4.2,4.7c0.8,2,3,2.9,4.9,2.2
			c2-0.8,2.9-3,2.2-4.9c-1.6-4.3-4.6-7.4-8.4-9c-8-3.3-17.6,0.8-18,1c-0.1,0-0.1,0.1-0.2,0.1l-11.6,5.8l-12.4-6.2
			c-0.1,0-0.1-0.1-0.2-0.1c-0.4-0.2-10-4.3-18-1c-3.9,1.6-6.8,4.7-8.4,9c-0.8,2,0.2,4.2,2.2,4.9C65,54,67.2,53,68,51
			c0.9-2.3,2.3-3.9,4.2-4.7c4.1-1.7,10,0,12,0.9l7.2,3.6l-76,38.1c-1.1,0.5-2.2,1-3.3,1.6l-0.1,0c-0.3,0.1-0.5,0.3-0.7,0.5
			c-4.8,3.2-7.9,8.3-7.9,13.9v39.3c0,9.8,9.2,17.7,20.4,17.7h46.3c1.3,0,2.5-0.7,3.2-1.8c7.1-11.4,17.4-23.6,21.7-23.6h9.7
			c4.2,0,14.6,12.2,21.7,23.6c0.7,1.1,1.9,1.8,3.2,1.8H176c11.2,0,20.4-7.9,20.4-17.7V105C196.5,97.7,191.2,91.3,183.9,88.7z
			 M164.2,87.3H35.7l64.3-32.2L164.2,87.3z M188.8,144.3c0,5.6-5.7,10.1-12.8,10.1h-44.2c-5-7.8-17.4-25.4-27-25.4h-9.7
			c-9.6,0-22,17.6-27,25.4H23.9c-7.1,0-12.8-4.5-12.8-10.1V105c0-3.1,1.8-5.8,4.5-7.7c0,0,0.8-0.5,1.5-0.9c0.9-0.4,1.5-0.6,1.5-0.6
			c1.6-0.6,3.4-0.9,5.3-0.9h152.1c1.7,0,3.3,0.3,4.8,0.7c0,0,2.3,0.8,3.4,1.6c2.8,1.8,4.6,4.6,4.6,7.7L188.8,144.3L188.8,144.3z"/>
	</g>
	<polygon display="inline" fill="#FFFFFF" points="65.5,90.8 65.5,156.6 76.8,147.5 82.9,135.7 96.8,133.4 105.9,133.4 118.9,142.6 
		127,156.6 129.9,156.6 136.1,90.8 	"/>
	<polygon display="inline" fill="#FFFFFF" points="9,93 9.3,156.6 22.4,156.6 25.1,90.8 	"/>
	<polyline display="inline" fill="#FFFFFF" points="17,103.2 192.2,105.9 185.7,90.8 17,91.9 17,100.6 14.3,140.4 70.1,143.7 
		68.2,156.6 17,161 	"/>
	<polygon display="inline" fill="#FFFFFF" points="172.8,95.1 192.2,98.4 191.5,155.9 174.9,156.6 	"/>
	<polygon display="inline" fill="#FFFFFF" points="124.8,140.4 182.5,140.4 182.5,158.8 129.9,158.8 	"/>
</g>
<g id="Producer" display="none">
	<path id="Productor" display="inline" fill="#FFFFFF" d="M175,88.2H47.8l116.3-51.6c1.8-0.8,2.7-3,1.8-4.8l-7.3-16.5
		c-3.2-7.2-10.4-11.9-18.3-11.9c-2.8,0-5.5,0.6-8.1,1.7L33.3,49c-10.1,4.5-14.7,16.3-10.2,26.4l7.2,16.3c0,0,0,0,0,0.1v84.7
		c0,11,9,20,20,20h108.2c11,0,20-9,20-20V91.9C178.6,89.9,177,88.2,175,88.2z M37.6,95.5h38.6l-27.7,26.6H37.6V95.5z M86.8,95.5
		h27.8l-29.2,26.4c-0.1,0.1-0.2,0.2-0.3,0.3h-26L86.8,95.5z M125.3,95.6C125.4,95.6,125.4,95.5,125.3,95.6l24.9-0.1l-27.3,26.6h-27
		L125.3,95.6z M160.7,95.5h10.7v26.6h-38L160.7,95.5z M94.6,29.8L78.8,65.9c-0.1,0.2-0.2,0.5-0.2,0.7L54.7,77.2l14.4-36.1L94.6,29.8
		z M88.4,62.3l16.1-36.8c0,0,0,0,0,0l23.1-10.2l-14.1,36L88.4,62.3z M152,18.3l5.8,13.1l-34.9,15.5l14-35.8c1.1-0.3,2.2-0.5,3.4-0.5
		C145.3,10.7,149.9,13.7,152,18.3z M36.3,55.7l23.3-10.4L45.1,81.4l-9.5,4.2l-5.8-13.1C26.9,66.1,29.8,58.6,36.3,55.7z M158.6,189.3
		H50.4c-7,0-12.8-5.7-12.8-12.8v-47.1h133.7v47.1C171.3,183.6,165.6,189.3,158.6,189.3z"/>
	<polygon display="inline" fill="#FFFFFF" points="37.2,124.5 177.2,124.5 172.9,186.7 151.3,191.1 44.2,191.1 34.3,182.4 	"/>
</g>
<g id="Rookie_1_" display="none">
	<g id="Rookie" display="inline">
		<g>
			<path fill="#FFFFFF" d="M108.3,135.7c-1.1,0-3.2-0.4-5-2.9l-7.5-10.7c-0.7-1-2.7-2-3.9-2l-13.1,0.2c0,0,0,0,0,0
				c-2.7,0-4.8-1.1-5.8-3.1c-1-2-0.7-4.3,0.9-6.4l7.8-10.5c0.7-1,1.1-3.2,0.7-4.4l-4.2-12.4c-1-2.9-0.1-4.9,0.6-5.8
				c1.4-2,4.1-2.7,7-1.8l12.4,4.2c0.2,0.1,0.6,0.2,1.2,0.2c1.3,0,2.6-0.4,3.2-0.9l10.5-7.8c2.6-2,5.9-1.9,7.8,0.1
				c0.8,0.8,1.7,2.3,1.7,4.8l-0.2,13.1c0,1.2,1,3.3,2,4l10.7,7.5c2.2,1.5,3.2,3.7,2.9,5.9c-0.4,2.2-2,3.9-4.5,4.7l-12.5,3.9
				c-1.2,0.4-2.8,2-3.1,3.1l-3.9,12.5C112.8,134.5,110.3,135.7,108.3,135.7z M91.7,112.6c3.8,0,8,2.2,10.1,5.2l5.8,8.1l3-9.5
				c1.1-3.5,4.6-7,8.1-8.1l9.5-3l-8.1-5.8c-3-2.1-5.2-6.5-5.2-10.2l0.1-10l-8,6c-2,1.5-4.8,2.3-7.6,2.3c-1.3,0-2.5-0.2-3.6-0.6
				l-9.4-3.2l3.2,9.4c1.2,3.5,0.4,8.3-1.8,11.3l-6,8L91.7,112.6L91.7,112.6z"/>
		</g>
		<g>
			<path fill="#FFFFFF" d="M95.1,193.5c-0.1,0-0.1,0-0.1,0c-1,0-2-0.5-2.7-1.3c-0.4-0.5-0.8-1-1.2-1.4c-4.5-4.5-10.4-6.9-16.8-6.9
				s-12.3,2.5-16.8,6.9c-0.4,0.4-0.7,0.8-1.1,1.2c-0.7,0.8-1.7,1.3-2.7,1.3c-1,0-2.1-0.3-2.8-1.1L7.5,149c-0.7-0.7-1.1-1.7-1.1-2.8
				c0-1,0.5-2,1.3-2.7l0.3-0.2c0.3-0.3,0.7-0.6,1-0.9c4.5-4.5,7-10.4,7-16.8s-2.5-12.3-7-16.8c0,0-0.1-0.1-0.2-0.2
				C8.1,108,7.7,107,7.6,106c0-1,0.4-2,1.1-2.7l94.6-94.6c0.7-0.7,1.7-1.1,2.6-1.1c0,0,0,0,0,0c1,0,2,0.4,2.6,1.1
				c0.1,0.1,0.2,0.2,0.3,0.3c4.4,4.4,10.4,6.9,16.7,6.9c6.3,0,12.3-2.5,16.8-7c0.3-0.3,0.6-0.7,0.9-1l0.2-0.2
				c0.7-0.8,1.7-1.2,2.7-1.3c1,0,2,0.4,2.8,1.1l43.3,43.3c0.7,0.7,1.1,1.7,1.1,2.8c0,1-0.5,2-1.3,2.7l-0.1,0.1
				c-0.4,0.3-0.8,0.7-1.1,1c-9.3,9.3-9.3,24.3,0,33.6c0.4,0.4,0.9,0.8,1.4,1.2c0.8,0.7,1.3,1.7,1.3,2.7c0,1-0.4,2-1.1,2.8
				l-94.7,94.8C97,193.2,96.1,193.5,95.1,193.5z M74.2,176.4c7.8,0,15.2,2.8,20.9,8l89.4-89.4c-10.7-11.8-10.7-29.8-0.1-41.7
				l-37.9-37.9c-5.7,5.1-13,7.9-20.8,7.9c-7.2,0-14-2.4-19.6-6.9l-89.6,89.6c4.5,5.5,6.9,12.4,6.9,19.6c0,7.7-2.8,15.1-7.9,20.8
				l37.9,37.9C59.2,179.2,66.5,176.4,74.2,176.4z"/>
		</g>
		<g>
			<path fill="#FFFFFF" d="M89.9,170.1c-1,0-1.9-0.4-2.6-1.1l-55.2-55.2c-1.5-1.5-1.5-3.8,0-5.3c1.5-1.5,3.8-1.5,5.3,0l55.2,55.2
				c1.5,1.5,1.5,3.8,0,5.3C91.8,169.8,90.8,170.1,89.9,170.1z"/>
		</g>
		<g>
			<path fill="#FFFFFF" d="M167.2,92.8c-1,0-1.9-0.4-2.6-1.1l-55.2-55.2c-1.5-1.5-1.5-3.8,0-5.3c1.5-1.5,3.8-1.5,5.3,0l55.2,55.2
				c1.5,1.5,1.5,3.8,0,5.3C169.2,92.4,168.2,92.8,167.2,92.8z"/>
		</g>
	</g>
	<polyline display="inline" fill="#FFFFFF" points="84.3,80.3 105.1,82.7 114.7,74.7 119.3,94.7 134,105.3 115.7,114.3 108.3,128.3 
		95,115.7 76.3,114.7 87.7,98.5 	"/>
</g>
</svg>
