<?xml version="1.0" encoding="utf-8"?>
<!-- Generator: Adobe Illustrator 16.0.0, SVG Export Plug-In . SVG Version: 6.00 Build 0)  -->
<!DOCTYPE svg PUBLIC "-//W3C//DTD SVG 1.1//EN" "http://www.w3.org/Graphics/SVG/1.1/DTD/svg11.dtd">
<svg version="1.1" id="Layer_1" xmlns="http://www.w3.org/2000/svg" xmlns:xlink="http://www.w3.org/1999/xlink" x="0px" y="0px"
	 width="200px" height="200px" viewBox="0 0 200 200" enable-background="new 0 0 200 200" xml:space="preserve">
<rect x="-96" y="-81" display="none" fill="#20C4C4" width="403" height="359"/>
<g id="Enteradillo_1_">
	<g id="Enteradillo">
		<path fill="#FFFFFF" d="M154.99,74.711c0-0.136-0.01-0.27-0.023-0.402c-0.484-11.747-22.224-18.077-42.586-20.088
			c-2.031-0.197-3.836,1.281-4.037,3.312c-0.199,2.028,1.283,3.836,3.312,4.037c23.972,2.368,35.425,8.97,35.922,12.879
			l-0.294,1.535c-2.705,5.562-22.425,12.661-52.107,12.661c-29.828,0-49.595-7.168-52.146-12.742l-0.279-1.456
			c0.534-4.344,14.024-11.167,38.913-13.143c2.033-0.162,3.55-1.94,3.389-3.973c-0.162-2.034-1.944-3.553-3.973-3.388
			c-22.106,1.755-45.729,8.132-45.729,20.768c0,0.137,0.01,0.272,0.024,0.408c0.039,0.92,0.207,1.811,0.498,2.672l19.941,104.025
			c0.378,10.037,15.383,16.254,39.352,16.254c23.966,0,38.97-6.217,39.349-16.254l19.912-103.879
			C154.796,76.904,154.99,75.829,154.99,74.711z M127.203,180.732c-0.044,0.229-0.066,0.461-0.066,0.694
			c0,3.732-10.16,9.257-31.97,9.257c-21.812,0-31.974-5.523-31.974-9.257c0-0.233-0.022-0.467-0.066-0.694L45.146,86.94
			c11.271,6,30.726,9.089,50.03,9.089c19.289,0,38.729-3.085,50.004-9.075L127.203,180.732z"/>
		<path fill="#FFFFFF" d="M164.504,4.603c-0.564-1.96-2.611-3.092-4.57-2.525l-48.238,13.915c-1.066,0.309-1.885,1.057-2.32,1.991
			c-0.129,0.201-0.241,0.417-0.332,0.649L88.636,70.579c-0.746,1.897,0.188,4.041,2.087,4.786c0.443,0.174,0.9,0.257,1.349,0.257
			c1.474,0,2.867-0.888,3.438-2.344l19.904-50.672l46.564-13.433C163.939,8.607,165.068,6.562,164.504,4.603z"/>
	</g>
	<path display="none" fill="#FFFFFF" d="M40.328,81.287c0,0,42.37,25.422,110.164,0c0,0-19.896,102.553-23.977,106.632
		c-4.08,4.08-70.049,6.146-70.049-2.951c0-9.096-20.594-107.178-20.594-107.178"/>
</g>
<g id="Palomitero_1_" display="none">
	<g id="Palomitero" display="inline">
		<g>
			<path fill="#FFFFFF" d="M178.938,75.401c0.088-1.138,0.136-2.266,0.136-3.366c0-21.613-15.863-40.003-37.282-43.719
				c-7.32-15.518-22.977-25.417-40.545-25.417c-13.571,0-26.455,6.128-34.911,16.5c-0.401-0.011-0.79-0.017-1.173-0.017
				c-24.926,0-45.204,19.922-45.204,44.412c0,5.23,0.924,10.349,2.747,15.238c-0.21,1.416-0.322,2.862-0.322,4.335
				c0,4.374,21.474,78.889,30.708,110.722c0.517,1.784,2.153,3.015,4.011,3.015h89.682c1.888,0,3.54-1.269,4.03-3.09
				C180.044,85.58,180.044,84.086,180.044,83.367C180.043,80.605,179.652,77.936,178.938,75.401z M28.31,63.793
				c0-19.883,16.531-36.059,36.851-36.059c0.846,0,1.745,0.038,2.828,0.117c1.447,0.112,2.829-0.536,3.679-1.699
				c6.826-9.33,17.883-14.9,29.577-14.9c14.979,0,28.241,8.805,33.782,22.433c0.572,1.407,1.863,2.392,3.373,2.572
				c14.229,1.707,25.754,11.271,30.266,23.915c-4.979-3.874-11.225-6.189-18.007-6.189c-10.22,0-19.438,5.309-24.724,13.515
				c-5.283-8.207-14.504-13.515-24.725-13.515c-10.22,0-19.439,5.308-24.722,13.515c-5.285-8.206-14.504-13.515-24.726-13.515
				c-9.541,0-18.031,4.574-23.402,11.641C28.331,65.015,28.31,64.405,28.31,63.793z M143.581,188.748H60.237
				C48.428,147.98,31.496,88.561,30.734,83.202c0.006-0.883,0.075-1.752,0.188-2.607c0.123-0.27,0.221-0.555,0.284-0.853
				c2.056-9.63,10.702-16.619,20.559-16.619c10.019,0,18.693,7.124,20.627,16.94c0.386,1.958,2.102,3.369,4.098,3.369
				c1.996,0,3.711-1.412,4.098-3.37c1.933-9.815,10.607-16.939,20.625-16.939c10.018,0,18.691,7.124,20.626,16.939
				c0.386,1.958,2.103,3.37,4.097,3.37c1.998,0,3.713-1.412,4.1-3.369c1.936-9.816,10.607-16.94,20.625-16.94
				c9.163,0,17.206,5.861,20.015,14.584c0.12,0.374,0.291,0.72,0.502,1.034c0.312,1.38,0.487,2.809,0.513,4.274
				C170.529,88.361,154.666,147.609,143.581,188.748z"/>
			<path fill="#FFFFFF" d="M101.214,101.489c-23.001,0-41.02,12.056-41.02,27.446c0,15.389,18.019,27.443,41.02,27.443
				s41.019-12.056,41.019-27.443C142.232,113.545,124.215,101.489,101.214,101.489z M101.214,148.025
				c-17.707,0-32.667-8.74-32.667-19.09c0-10.351,14.96-19.095,32.667-19.095c17.708,0,32.665,8.744,32.665,19.095
				C133.879,139.285,118.921,148.025,101.214,148.025z"/>
		</g>
	</g>
	<path fill="#FFFFFF" d="M25.589,80.076c0,0,26.836-41.882,50.827-3.253c0,0,26.021-41.475,49.607,0.407
		c0,0,25.211-41.474,49.201,2.847l-11.388,47.168l-26.836,1.69c0,0-23.176-56.991-74.41-1.69l-23.584,1.69L25.589,80.076z"/>
	<path fill="#FFFFFF" d="M62.592,124.805l-25.404-4.936l20.931,69.18l87.83,2.848l18.217-68.443l-19.641,2.773
		C144.523,126.227,88,191.445,62.592,124.805z"/>
</g>
<g id="Legend" display="none">
	<path id="Leyenda" display="inline" fill="#FFFFFF" d="M157.309,55.037c2.674-2.606,3.694-5.681,2.801-8.436
		c-0.896-2.753-3.527-4.642-7.223-5.178l-24.978-3.629c-3.466-0.504-8.033-3.823-9.583-6.963L107.154,8.2
		c-1.648-3.35-4.258-5.27-7.154-5.27c-2.896,0-5.505,1.92-7.159,5.269L81.672,30.831c-1.549,3.14-6.116,6.459-9.581,6.963
		l-24.976,3.63c-3.695,0.536-6.328,2.422-7.223,5.177c-0.896,2.754,0.124,5.829,2.797,8.436l18.076,17.617
		c2.505,2.442,4.25,7.812,3.658,11.264l-4.266,24.876c-0.655,3.821,0.48,6.136,1.548,7.401c2.206,2.617,6.098,3.08,10.032,1.011
		l11.555-6.073l-5.797,26.492H68.79c-5.699,0-10.335,4.636-10.335,10.336v38.773c0,5.699,4.637,10.336,10.335,10.336h62.419
		c5.699,0,10.336-4.637,10.336-10.336v-38.773c0-5.7-4.637-10.336-10.336-10.336h-8.705l-5.797-26.493l11.557,6.075
		c1.67,0.879,3.297,1.324,4.836,1.322c2.08,0,3.926-0.827,5.196-2.334c1.067-1.268,2.203-3.579,1.55-7.401l-4.268-24.876
		c-0.594-3.451,1.152-8.819,3.658-11.265L157.309,55.037z M134.113,147.961v38.773c0,1.603-1.305,2.906-2.905,2.906H68.789
		c-1.601,0-2.905-1.305-2.905-2.906v-38.773c0-1.604,1.304-2.904,2.905-2.904h62.419
		C132.811,145.057,134.113,146.357,134.113,147.961z M105.922,105.85l2.284,1.201l6.606,30.188H85.186l6.606-30.187l2.287-1.202
		c1.489-0.783,3.647-1.232,5.921-1.232C102.271,104.616,104.432,105.066,105.922,105.85z M134.051,67.333
		c-4.257,4.148-6.804,11.985-5.799,17.841l4.268,24.876c0.068,0.401,0.088,0.72,0.084,0.956c-0.22-0.068-0.514-0.182-0.883-0.376
		l-22.342-11.744c-2.559-1.345-5.89-2.086-9.379-2.086c-3.49,0-6.821,0.741-9.379,2.086L68.279,110.63
		c-0.368,0.193-0.661,0.308-0.882,0.375c-0.004-0.237,0.016-0.555,0.084-0.956l4.267-24.876c1.003-5.858-1.542-13.694-5.797-17.841
		L47.876,49.715c-0.292-0.284-0.493-0.53-0.63-0.724c0.225-0.078,0.533-0.157,0.936-0.216l24.978-3.629
		c5.879-0.855,12.545-5.699,15.176-11.028l11.17-22.632c0.18-0.364,0.35-0.632,0.493-0.822c0.143,0.19,0.314,0.458,0.494,0.822
		l11.17,22.632c2.631,5.329,9.297,10.173,15.178,11.028l24.978,3.628c0.4,0.06,0.711,0.139,0.936,0.216
		c-0.137,0.195-0.339,0.44-0.63,0.725L134.051,67.333z"/>
	<polygon fill="#FFFFFF" points="43.104,46.897 83.961,39.694 100,6.799 120.591,38.769 156.896,46.897 129.257,75.378 
		135.223,113.005 100,100 65.32,113.005 69.114,77.242 	"/>
</g>
<g id="Director_1_" display="none">
	<g id="Director" display="inline">
		<path fill="#FFFFFF" d="M88.667,146.098c-0.802-0.715-1.867-1.047-2.938-0.929l-22.692,2.622c-1.899,0.22-3.332,1.829-3.332,3.74
			v6.793c0,4.039,3.286,7.324,7.324,7.324h15.572c4.04,0,7.326-3.285,7.326-7.324v-9.415
			C89.926,147.836,89.468,146.812,88.667,146.098z M82.396,158.118H67.234v-3.232l15.162-1.751V158.118z"/>
		<path fill="#FFFFFF" d="M182.561,75.939c-2.248-5.477-22.363-53.515-36.494-53.515c-0.858,0-1.686,0.16-2.459,0.479
			C142.932,23.182,4.449,133.462,4.449,133.462c-1.358,1.074-1.809,2.937-1.094,4.511l9.312,20.495
			c0.676,1.488,2.223,2.36,3.86,2.185l29.794-3.445v8.46c0,6.567,5.344,11.91,11.912,11.91h33.164
			c6.568,0,11.912-5.343,11.912-11.91v-15.002c87.385-9.009,88.129-9.312,88.791-9.585
			C206.379,135.193,185.039,81.987,182.561,75.939z M11.431,137.542l17.862-14.117c0.077-0.062,0.155-0.124,0.232-0.187
			c2.737,4.875,7.597,14.923,9.273,27.257l-20.411,2.358L11.431,137.542z M189.044,134.032c-7.476,0.938-56.769,6.077-89.888,9.489
			c-1.919,0.199-3.379,1.813-3.379,3.744v18.399c0,2.415-1.965,4.38-4.38,4.38H58.233c-2.416,0-4.381-1.965-4.381-4.38V152.98
			c0-1.074-0.459-2.099-1.261-2.812c-0.692-0.618-1.585-0.954-2.504-0.954c-0.143,0-0.289,0.009-0.433,0.024l-3.372,0.39
			c-1.949-14.633-7.847-26.146-10.793-31.155C74.399,87.372,138.471,36.21,146.414,30.06c4.12,1.576,16.677,18.266,29.179,48.737
			C188.109,109.316,190.884,130.041,189.044,134.032z"/>
	</g>
	<path fill="#FFFFFF" d="M33.049,115.598l111.84-90.157c0,0,46.026,47.93,46.026,112.599L100,145.146l-57.061,6.97L33.049,115.598z"
		/>
</g>
<g id="enthusiast_1_" display="none">
	<g id="enthusiast" display="inline">
		<g>
			<path fill="#FFFFFF" d="M62.148,147.548H28.271c-4.387,0-7.956-3.265-7.956-7.276v-32.377c0-4.012,3.569-7.275,7.956-7.275
				h33.877c4.386,0,7.955,3.264,7.955,7.275v32.377C70.103,144.283,66.534,147.548,62.148,147.548z M27.93,139.88
				c0.083,0.029,0.197,0.054,0.341,0.054h33.877c0.143,0,0.257-0.023,0.34-0.054v-31.594c-0.083-0.029-0.197-0.054-0.34-0.054
				H28.271c-0.145,0-0.258,0.024-0.341,0.054V139.88z"/>
		</g>
		<g>
			<path fill="#FFFFFF" d="M171.729,147.548h-33.875c-4.389,0-7.957-3.265-7.957-7.276v-32.377c0-4.012,3.568-7.275,7.957-7.275
				h33.875c4.389,0,7.957,3.264,7.957,7.275v32.377C179.688,144.283,176.117,147.548,171.729,147.548z M137.512,139.88
				c0.084,0.028,0.197,0.054,0.342,0.054h33.877c0.144,0,0.26-0.024,0.342-0.054v-31.594c-0.082-0.028-0.198-0.054-0.342-0.054
				h-33.877c-0.145,0-0.258,0.024-0.342,0.054V139.88z"/>
		</g>
		<path fill="#FFFFFF" d="M183.859,88.67l-75.448-37.835l6.433-3.226c0.721-0.295,7.264-2.859,11.982-0.896
			c1.947,0.81,3.336,2.344,4.24,4.687c0.757,1.961,2.957,2.94,4.924,2.182c1.961-0.757,2.938-2.961,2.181-4.923
			c-1.646-4.266-4.56-7.369-8.421-8.976c-8.029-3.341-17.63,0.805-18.035,0.984c-0.059,0.025-0.115,0.052-0.174,0.082l-11.623,5.828
			l-12.392-6.213c-0.057-0.03-0.115-0.057-0.174-0.082c-0.405-0.179-10.008-4.323-18.036-0.984
			c-3.863,1.607-6.776,4.711-8.422,8.977c-0.757,1.961,0.22,4.166,2.182,4.923c1.958,0.757,4.165-0.22,4.921-2.181
			c0.901-2.335,2.283-3.865,4.222-4.679c4.098-1.719,9.978,0.03,11.995,0.883l7.212,3.616L15.441,88.939
			c-1.148,0.458-2.238,1.007-3.26,1.634l-0.056,0.028c-0.263,0.132-0.502,0.293-0.72,0.473c-4.777,3.24-7.856,8.277-7.856,13.93
			v39.312c0,9.75,9.151,17.684,20.399,17.684H70.27c1.319,0,2.545-0.684,3.239-1.805c7.055-11.415,17.439-23.635,21.651-23.635
			h9.679c4.204,0,14.591,12.221,21.652,23.635c0.692,1.121,1.919,1.805,3.237,1.805h46.321c11.249,0,20.399-7.934,20.399-17.682
			v-39.313C196.452,97.65,191.245,91.333,183.859,88.67z M164.184,87.322H35.653l64.265-32.227L164.184,87.322z M188.837,144.318
			c0,5.551-5.735,10.066-12.785,10.066h-44.219c-5-7.807-17.364-25.438-26.993-25.438h-9.679c-9.63,0-21.993,17.632-26.991,25.438
			H23.948c-7.05,0-12.785-4.517-12.785-10.066v-39.313c0-3.065,1.75-5.811,4.5-7.659c0,0,0.769-0.516,1.521-0.903
			c0.868-0.446,1.483-0.604,1.483-0.604c1.61-0.578,3.397-0.903,5.28-0.903h152.104c1.688,0,3.297,0.261,4.773,0.731
			c0,0,2.316,0.812,3.439,1.629c2.793,1.849,4.571,4.617,4.571,7.708v39.314H188.837z"/>
	</g>
	<polygon fill="#FFFFFF" points="65.496,90.835 65.496,156.607 76.817,147.548 82.926,135.669 96.765,133.426 105.932,133.426 
		118.869,142.591 126.956,156.607 129.896,156.607 136.121,90.835 	"/>
	<polygon fill="#FFFFFF" points="9.027,92.97 9.303,156.607 22.366,156.607 25.062,90.835 	"/>
	<polyline fill="#FFFFFF" points="17.044,103.234 192.189,105.932 185.723,90.835 17.044,91.902 17.044,100.619 14.279,140.436 
		70.104,143.669 68.191,156.607 17.044,160.955 	"/>
	<polygon fill="#FFFFFF" points="172.782,95.148 192.189,98.383 191.467,155.884 174.938,156.607 	"/>
	<polygon fill="#FFFFFF" points="124.8,140.436 182.486,140.436 182.486,158.766 129.896,158.766 	"/>
</g>
<g id="Producer" display="none">
	<path id="Productor" display="inline" fill="#FFFFFF" d="M174.959,88.221H47.816L164.073,36.61c1.836-0.815,2.663-2.965,1.849-4.8
		l-7.312-16.476c-3.213-7.232-10.4-11.905-18.314-11.905c-2.805,0-5.536,0.58-8.118,1.727L33.305,49.05
		c-10.093,4.482-14.66,16.339-10.179,26.432l7.24,16.307c0,0.023-0.004,0.046-0.004,0.07v84.681c0,11.044,8.985,20.03,20.03,20.03
		h108.172c11.047,0,20.031-8.986,20.031-20.03V91.859C178.598,89.851,176.969,88.221,174.959,88.221z M37.638,95.497h38.638
		l-27.69,26.644H37.638V95.497z M86.769,95.497h27.795l-29.21,26.386c-0.091,0.083-0.177,0.169-0.258,0.258H59.078L86.769,95.497z
		 M125.333,95.575c0.026-0.024,0.051-0.052,0.077-0.077h24.838l-27.334,26.643H95.921L125.333,95.575z M160.669,95.497h10.653
		v26.644h-37.986L160.669,95.497z M94.601,29.797L78.828,65.893c-0.101,0.229-0.175,0.465-0.226,0.702L54.667,77.221l14.444-36.107
		L94.601,29.797z M88.352,62.267l16.083-36.804c0.004-0.013,0.008-0.024,0.014-0.036l23.076-10.246L113.41,51.142L88.352,62.267z
		 M151.959,18.287l5.837,13.149L122.877,46.94l14.041-35.775c1.1-0.304,2.229-0.46,3.376-0.46
		C145.335,10.705,149.914,13.681,151.959,18.287z M36.257,55.699l23.327-10.356L45.141,81.45l-9.526,4.229L29.776,72.53
		C26.922,66.104,29.831,58.553,36.257,55.699z M158.566,189.295H50.393c-7.033,0-12.755-5.721-12.755-12.754v-47.125h133.685v47.125
		C171.322,183.574,165.602,189.295,158.566,189.295z"/>
	<polygon display="inline" fill="#FFFFFF" points="37.193,124.5 177.207,124.5 172.883,186.723 151.258,191.05 44.22,191.05 
		34.251,182.374 	"/>
</g>
<g id="Rookie_1_" display="none">
	<g id="Rookie" display="inline">
		<g>
			<path fill="#FFFFFF" d="M108.327,135.705c-1.11,0-3.242-0.378-5.039-2.915l-7.544-10.668c-0.708-1-2.698-2.021-3.942-2.021
				l-13.081,0.168c0,0-0.001,0-0.003,0c-2.721,0-4.776-1.123-5.758-3.08c-0.987-1.965-0.65-4.305,0.922-6.414l7.815-10.47
				c0.744-0.996,1.093-3.21,0.694-4.389l-4.195-12.37c-0.993-2.928-0.062-4.871,0.581-5.768c1.434-2,4.133-2.724,6.954-1.766
				l12.371,4.194c0.18,0.061,0.572,0.162,1.216,0.162c1.331,0,2.602-0.432,3.173-0.858l10.468-7.812
				c2.645-1.972,5.854-1.88,7.777,0.07c0.801,0.811,1.748,2.295,1.717,4.767l-0.164,13.062c-0.018,1.222,1.021,3.259,2.018,3.965
				l10.664,7.54c2.164,1.53,3.203,3.662,2.855,5.852c-0.35,2.186-1.997,3.89-4.525,4.673l-12.472,3.879
				c-1.167,0.36-2.781,1.978-3.144,3.142l-3.879,12.477C112.759,134.499,110.289,135.705,108.327,135.705z M91.69,112.635
				c3.808,0,8.027,2.178,10.148,5.174l5.758,8.143l2.961-9.521c1.086-3.506,4.551-6.97,8.059-8.058l9.52-2.961l-8.14-5.754
				c-2.998-2.123-5.22-6.488-5.172-10.157l0.126-9.969l-7.992,5.965c-1.963,1.465-4.818,2.34-7.638,2.34
				c-1.309,0-2.524-0.188-3.615-0.558l-9.442-3.201l3.202,9.443c1.179,3.478,0.412,8.316-1.783,11.253l-5.963,7.99L91.69,112.635
				L91.69,112.635z"/>
		</g>
		<g>
			<path fill="#FFFFFF" d="M95.064,193.548c-0.05,0-0.1-0.001-0.149-0.003c-1.042-0.043-2.019-0.518-2.693-1.312
				c-0.415-0.485-0.821-0.959-1.233-1.371c-4.483-4.482-10.444-6.95-16.785-6.95c-6.341,0-12.3,2.468-16.782,6.95
				c-0.377,0.378-0.719,0.779-1.063,1.182c-0.678,0.788-1.685,1.294-2.722,1.333c-1.042,0.047-2.078-0.317-2.813-1.054
				L7.548,149.046c-0.729-0.731-1.125-1.729-1.091-2.762c0.034-1.031,0.494-2.005,1.269-2.685l0.273-0.238
				c0.339-0.295,0.681-0.59,1.005-0.914c4.485-4.484,6.954-10.444,6.954-16.784s-2.469-12.302-6.952-16.784
				c-0.037-0.023-0.139-0.115-0.237-0.211c-0.713-0.697-1.117-1.65-1.123-2.648c-0.006-0.996,0.388-1.955,1.094-2.66l94.619-94.623
				c0.699-0.701,1.65-1.094,2.64-1.094c0.007,0,0.015,0,0.021,0c0.998,0.006,1.951,0.41,2.647,1.123
				c0.099,0.101,0.19,0.204,0.28,0.309c4.414,4.411,10.375,6.88,16.714,6.88c6.341,0,12.301-2.47,16.782-6.953
				c0.336-0.333,0.637-0.684,0.939-1.033l0.208-0.24c0.681-0.778,1.653-1.24,2.687-1.274c1.039-0.044,2.035,0.359,2.767,1.09
				l43.274,43.275c0.734,0.734,1.13,1.74,1.093,2.777c-0.038,1.036-0.507,2.011-1.291,2.688l-0.116,0.099
				c-0.388,0.335-0.777,0.667-1.145,1.034c-9.254,9.252-9.254,24.31,0.002,33.566c0.402,0.403,0.861,0.799,1.375,1.238
				c0.791,0.677,1.264,1.652,1.305,2.693c0.041,1.039-0.354,2.049-1.09,2.785l-94.748,94.751
				C97.002,193.154,96.052,193.548,95.064,193.548z M74.203,176.443c7.802,0,15.167,2.845,20.911,8.041l89.371-89.375
				c-10.659-11.799-10.699-29.843-0.118-41.685L146.439,15.5c-5.724,5.121-13.035,7.922-20.777,7.922
				c-7.197,0-14.025-2.422-19.551-6.879l-89.566,89.57c4.458,5.525,6.879,12.351,6.879,19.551c0,7.74-2.801,15.052-7.922,20.775
				l37.924,37.927C59.151,179.244,66.462,176.443,74.203,176.443z"/>
		</g>
		<g>
			<path fill="#FFFFFF" d="M89.886,170.139c-0.956,0-1.911-0.363-2.641-1.094l-55.16-55.162c-1.458-1.459-1.458-3.822,0-5.279
				c1.457-1.459,3.821-1.457,5.28,0l55.16,55.162c1.458,1.457,1.458,3.821,0,5.279C91.796,169.773,90.841,170.139,89.886,170.139z"
				/>
		</g>
		<g>
			<path fill="#FFFFFF" d="M167.245,92.778c-0.955,0-1.911-0.365-2.64-1.094l-55.164-55.161c-1.459-1.458-1.459-3.822,0-5.279
				c1.459-1.458,3.822-1.458,5.279-0.001l55.162,55.161c1.459,1.458,1.459,3.822,0.001,5.279
				C169.154,92.413,168.199,92.778,167.245,92.778z"/>
		</g>
	</g>
	<polyline display="inline" fill="#FFFFFF" points="84.333,80.333 105.146,82.667 114.667,74.667 119.333,94.667 134,105.333 
		115.667,114.333 108.348,128.333 95,115.667 76.333,114.667 87.667,98.5 	"/>
</g>
</svg>
