<?xml version="1.0" encoding="utf-8"?>
<!-- Generator: Adobe Illustrator 18.0.0, SVG Export Plug-In . SVG Version: 6.00 Build 0)  -->
<!DOCTYPE svg PUBLIC "-//W3C//DTD SVG 1.1//EN" "http://www.w3.org/Graphics/SVG/1.1/DTD/svg11.dtd">
<svg version="1.1" id="Capa_1" xmlns="http://www.w3.org/2000/svg" xmlns:xlink="http://www.w3.org/1999/xlink" x="0px" y="0px"
	 viewBox="0 0 257.2 242.4" enable-background="new 0 0 257.2 242.4" xml:space="preserve">
<g display="none">
	<g display="inline">
		<path d="M135,105.1c-28.4,0-51.5-23.1-51.5-51.5c0-28.4,23.1-51.5,51.5-51.5c28.4,0,51.5,23.1,51.5,51.5
			C186.4,82,163.3,105.1,135,105.1z M135,16.5c-20.5,0-37.1,16.7-37.1,37.1c0,20.5,16.7,37.1,37.1,37.1c20.5,0,37.1-16.6,37.1-37.1
			C172.1,33.2,155.4,16.5,135,16.5z"/>
	</g>
	<g display="inline">
		<path d="M39.7,105.1c-17.9,0-32.5-15-32.5-33.5s14.6-33.5,32.5-33.5c17.9,0,32.5,15,32.5,33.5S57.6,105.1,39.7,105.1z M39.7,52.5
			c-10,0-18.2,8.6-18.2,19.1c0,10.5,8.2,19.1,18.2,19.1c10,0,18.2-8.6,18.2-19.1C57.9,61.1,49.7,52.5,39.7,52.5z"/>
	</g>
	<g display="inline">
		<path d="M144.7,217L144.7,217c-15.3,0-30.3,12-42.9,20.8l-5.8,4l-6.8-4.7c-11.8-8.3-25.9-20-40.3-20h0
			c-20.1,0-27.4-16.4-27.4-27.4v-48.1c0-20.1,16.4-27.4,27.4-27.4h18.2c10.7,0,21.1,4.4,29.3,11.2l0,0l0,0
			c8.1-6.8,18.4-11.2,28.9-11.2h19.3c20.1,0,27.4,16.4,27.4,27.4v48.1C172.1,209.7,155.7,217,144.7,217z M48.9,128.4
			c-3,0.1-13.1,1.2-13.1,13.1v48.1c0,3,1.1,13.1,13.1,13.1h0c14.7,0,29.1,11.9,41.1,20.3l6.4,4.5l6.2-4.3c12.3-8.6,27-20.5,42-20.5
			h0c3.1-0.1,13.1-1.2,13.1-13.1v-48.1c-0.1-3-1.1-13.1-13.1-13.1l-19.5,0c-10.6,0-20.8,4.4-28.9,11.2h0h0
			c-8.3-6.8-18.6-11.2-29.3-11.2H48.9z"/>
	</g>
	<g display="inline">
		<path d="M237.6,205.1L237.6,205.1c-2.6,0-5.2-0.8-8.1-2.3L184.9,178v-25l44.6-24.8c0.7-0.4,4.1-2.2,8.2-2.2
			c5.7,0,12.3,3.8,12.3,14.5v50c0,0.5-0.1,3.2-1,6.1C247.1,201.9,242.9,205.1,237.6,205.1z M199.3,169.5l36.1,20l0.3-48.1
			l-36.4,19.9V169.5z"/>
	</g>
</g>
<g display="none">
	<g display="inline">
		<path d="M225,196.9C225,196.9,225,196.9,225,196.9c-2,0-3.9-0.5-5.8-1.4l-31.9-15.8l0.2-38l32-15.4c1.8-0.9,3.7-1.3,5.6-1.3
			c3.4,0,6.8,1.4,9.2,3.9c2.4,2.5,3.8,5.7,3.8,9.2L238,184C237.9,191.1,232.1,196.9,225,196.9z M199.8,172.1l24.9,12.4
			c0.1,0.1,0.2,0.1,0.2,0.1c0,0,0.5,0,0.5-0.5l0.3-45.9c0-0.2,0-0.3-0.1-0.4c-0.1-0.1-0.3-0.2-0.4-0.2c0,0-0.1,0-0.2,0.1l-25,12
			L199.8,172.1z"/>
	</g>
	<g display="inline">
		<path d="M138.8,106c-26.6,0-48.3-21.6-48.3-48.3c0-26.6,21.7-48.3,48.3-48.3c26.6,0,48.3,21.7,48.3,48.3
			C187.1,84.3,165.4,106,138.8,106z M138.8,22.9c-19.2,0-34.8,15.6-34.8,34.8c0,19.2,15.6,34.8,34.8,34.8
			c19.2,0,34.8-15.6,34.8-34.8C173.6,38.5,158,22.9,138.8,22.9z"/>
	</g>
	<g display="inline">
		<path d="M49.4,106c-16.8,0-30.5-14.1-30.5-31.4s13.7-31.4,30.5-31.4c16.8,0,30.5,14.1,30.5,31.4S66.3,106,49.4,106z M49.4,56.7
			c-9.4,0-17,8-17,17.9c0,9.9,7.6,17.9,17,17.9c9.4,0,17.1-8,17.1-17.9C66.5,64.7,58.8,56.7,49.4,56.7z"/>
	</g>
	<g display="inline">
		<path d="M147.9,214.3h-16.2c-3.6,0-7.1,1.3-9.9,3.6l-17.4,14.4c-1.2,1-2.9,1-4.1,0l-17.6-14.9c-2.3-2-5.3-3.1-8.4-3.1H58.1
			c-18.9,0-25.7-18.6-25.7-29v-45.1c0-18.9,15.4-25.7,25.7-25.7l16.9,0.2c2.7,0,5.4,0.6,7.8,1.7l17.8,8c1.3,0.6,2.7,0.5,3.9,0
			l15.9-7.4c2.9-1.3,6-2.1,9.1-2.2c0,0,0,0,0.1,0l18.1-0.3c18.9,0,25.7,15.4,25.7,25.7v45.1C173.6,204.1,158.2,214.3,147.9,214.3z
			 M58.1,127.9c-2.8,0.1-12.2,1.1-12.2,12.3v45.1c0,2.8,1.1,15.5,12.2,15.5h15.1c3.8,0,7.5,1.3,10.4,3.8l16.9,14.1c1.2,1,3,1,4.2,0
			l15.6-13.1c3.7-3.1,8.3-4.8,13.1-4.8h14.4c2.9-0.1,12.3-4.4,12.3-15.5v-45.1c-0.1-2.8-1.1-12.3-12.2-12.3l-17,0.2
			c-2.7,0-5.3,0.4-7.9,1.1c-0.8,0.2-1.6,0.5-2.4,0.9l-15.7,7.4c-1.6,0.8-3.5,0.8-5.1,0.1l-16.1-7.2c-3.3-1.5-6.8-2.3-10.4-2.3
			L58.1,127.9z"/>
	</g>
</g>
<g display="none">
	<g display="inline">
		<path d="M231.2,212.7C231.2,212.7,231.2,212.7,231.2,212.7c-2.1,0-4.2-0.5-6.1-1.4l-33.9-16.8l0.3-40.5l34.1-16.4
			c1.9-0.9,3.9-1.4,6-1.4c3.7,0,7.2,1.5,9.8,4.1c2.6,2.6,4,6.1,4,9.8L245,199C244.9,206.6,238.7,212.7,231.2,212.7z M204.4,186.3
			l26.5,13.2c0.1,0.1,0.2,0.1,0.3,0.1c0,0,0.6,0,0.6-0.6L232,150c0-0.2,0-0.3-0.2-0.4c-0.1-0.1-0.3-0.2-0.4-0.2c0,0-0.1,0-0.3,0.1
			l-26.6,12.8L204.4,186.3z"/>
	</g>
	<g display="inline">
		<path d="M139.5,116c-28.3,0-51.4-23-51.4-51.3c0-28.3,23-51.4,51.4-51.4c28.3,0,51.4,23,51.4,51.4C190.8,92.9,167.8,116,139.5,116
			z M139.5,27.6c-20.4,0-37,16.6-37,37.1c0,20.4,16.6,37,37,37c20.4,0,37.1-16.6,37.1-37C176.5,44.2,159.9,27.6,139.5,27.6z"/>
	</g>
	<g display="inline">
		<path d="M44.4,116c-17.9,0-32.5-15-32.5-33.4s14.6-33.4,32.5-33.4c17.9,0,32.5,15,32.5,33.4S62.3,116,44.4,116z M44.4,63.5
			c-10,0-18.1,8.6-18.1,19.1c0,10.5,8.1,19.1,18.1,19.1c10,0,18.1-8.6,18.1-19.1C62.5,72.1,54.4,63.5,44.4,63.5z"/>
	</g>
	<g display="inline">
		<path d="M148.8,229.1H53.2c-20.1,0-27.4-16.4-27.4-27.4v-48.1c0-20.1,16.4-27.4,27.4-27.4h95.7c20.1,0,27.4,16.4,27.4,27.4v48.1
			C176.2,221.8,159.8,229.1,148.8,229.1z M53.2,140.6c-3,0.1-13.1,1.1-13.1,13.1v48.1c0,3,1.1,13.1,13.1,13.1h95.6
			c3.1-0.1,13.1-1.2,13.1-13.1v-48.1c-0.1-3-1.1-13.1-13-13.1C148.8,140.6,53.2,140.6,53.2,140.6z"/>
	</g>
</g>
<g display="none">
	<g display="inline">
		<path d="M230,205C230,205,230,205,230,205c-2.1,0-4.2-0.5-6.1-1.4l-33.5-16.6l0.3-40l33.7-16.2c1.9-0.9,3.9-1.4,5.9-1.4
			c3.6,0,7.2,1.5,9.7,4.1c2.6,2.6,4,6,4,9.7l-0.3,48.3C243.6,198.9,237.5,205,230,205z M203.5,178.8l26.2,13
			c0.1,0.1,0.2,0.1,0.2,0.1c0,0,0.6,0,0.6-0.6l0.3-48.3c0-0.2,0-0.3-0.2-0.4c-0.1-0.1-0.3-0.2-0.4-0.2c0,0-0.1,0-0.3,0.1l-26.3,12.7
			L203.5,178.8z"/>
	</g>
	<g display="inline">
		<path d="M139.3,109.3c-28,0-50.8-22.8-50.8-50.8c0-28,22.8-50.8,50.8-50.8c28,0,50.8,22.8,50.8,50.8
			C190.1,86.5,167.3,109.3,139.3,109.3z M139.3,21.9c-20.2,0-36.6,16.4-36.6,36.6c0,20.2,16.4,36.6,36.6,36.6
			c20.2,0,36.6-16.4,36.6-36.6C176,38.3,159.5,21.9,139.3,21.9z"/>
	</g>
	<g display="inline">
		<path d="M45.3,109.3c-17.7,0-32.1-14.8-32.1-33s14.4-33,32.1-33c17.7,0,32.1,14.8,32.1,33S63,109.3,45.3,109.3z M45.3,57.5
			c-9.9,0-17.9,8.5-17.9,18.9c0,10.4,8,18.9,17.9,18.9c9.9,0,17.9-8.5,17.9-18.9C63.3,65.9,55.2,57.5,45.3,57.5z"/>
	</g>
	<g display="inline">
		<path d="M148.6,221.2h-4c-14.8,0-29.2,4.7-41.1,13.4l0,0l0,0c-12.2-8.7-26.9-13.4-41.9-13.4H54c-19.9,0-27.1-16.2-27.1-27.1v-47.5
			c0-19.9,16.2-27.1,27.1-27.1h94.6c19.9,0,27.1,16.2,27.1,27.1v47.5C175.7,214,159.5,221.2,148.6,221.2z M54,133.7
			c-3,0.1-12.9,1.1-12.9,12.9v47.5c0,3,1.1,12.9,12.9,12.9h8.1c14.9,0,29.4,4.7,41.5,13.4h0h0c11.9-8.7,26.3-13.4,41.1-13.4h3.8
			c3.1-0.1,12.9-1.2,12.9-12.9v-47.5c-0.1-3-1.1-12.9-12.9-12.9C148.6,133.7,54,133.7,54,133.7z"/>
	</g>
</g>
<g display="none">
	<g display="inline">
		<path d="M230.8,202C230.8,202,230.8,202,230.8,202c-2.1,0-4.2-0.5-6.1-1.4l-33.8-16.8l0.3-40.3l34-16.3c1.9-0.9,3.9-1.4,6-1.4
			c3.6,0,7.2,1.5,9.8,4.1c2.6,2.6,4,6.1,4,9.8l-0.3,48.7C244.5,195.8,238.3,202,230.8,202z M204.1,175.6l26.4,13.1
			c0.1,0.1,0.2,0.1,0.3,0.1c0,0,0.6,0,0.6-0.6l0.3-48.7c0-0.2,0-0.3-0.2-0.4c-0.1-0.1-0.3-0.2-0.4-0.2c0,0-0.1,0-0.3,0.1l-26.5,12.8
			L204.1,175.6z"/>
	</g>
	<g display="inline">
		<path d="M139.4,105.6c-28.2,0-51.2-22.9-51.2-51.2c0-28.2,23-51.2,51.2-51.2c28.2,0,51.2,23,51.2,51.2
			C190.6,82.6,167.6,105.6,139.4,105.6z M139.4,17.5c-20.4,0-36.9,16.6-36.9,36.9c0,20.3,16.6,36.9,36.9,36.9
			c20.3,0,36.9-16.6,36.9-36.9C176.3,34.1,159.8,17.5,139.4,17.5z"/>
	</g>
	<g display="inline">
		<path d="M44.7,105.6c-17.8,0-32.3-14.9-32.3-33.3s14.5-33.3,32.3-33.3C62.5,39.1,77,54,77,72.3S62.5,105.6,44.7,105.6z M44.7,53.3
			c-10,0-18.1,8.5-18.1,19c0,10.5,8.1,19,18.1,19c10,0,18.1-8.5,18.1-19C62.8,61.9,54.7,53.3,44.7,53.3z"/>
	</g>
	<g display="inline">
		<path d="M148.8,218.3l-1.8,0.2c-16.4,2.1-31.6,9.3-43.7,20.6l0,0l0,0c-12.3-11.3-27.9-18.4-44.5-20.2l-5.3-0.6
			c-20,0-27.3-16.3-27.3-27.3v-47.9c0-20,16.3-27.3,27.3-27.3h95.3c20,0,27.3,16.3,27.3,27.3V191C176,211.1,159.7,218.3,148.8,218.3
			z M53.4,130.1c-3,0.1-13,1.1-13,13V191c0,3,1.1,13,13,13l5.9,0.7c16.5,1.8,31.9,8.9,44.1,20.2l0,0l0,0
			c12-11.3,27.3-18.5,43.7-20.6l1.6-0.2c3.1-0.1,13-1.2,13-13v-47.9c-0.1-3-1.1-13-13-13C148.8,130.1,53.4,130.1,53.4,130.1z"/>
	</g>
</g>
<g display="none">
	<g display="inline">
		<path d="M230.8,202C230.8,202,230.8,202,230.8,202c-2.1,0-4.2-0.5-6.1-1.4l-33.8-16.8l0.3-40.3l34-16.3c1.9-0.9,3.9-1.4,6-1.4
			c3.6,0,7.2,1.5,9.8,4.1c2.6,2.6,4,6.1,4,9.8l-0.3,48.7C244.5,195.8,238.3,202,230.8,202z M204.1,175.6l26.4,13.1
			c0.1,0.1,0.2,0.1,0.3,0.1c0,0,0.6,0,0.6-0.6l0.3-48.7c0-0.2,0-0.3-0.2-0.4c-0.1-0.1-0.3-0.2-0.4-0.2c0,0-0.1,0-0.3,0.1l-26.5,12.8
			L204.1,175.6z"/>
	</g>
	<g display="inline">
		<path d="M139.4,105.6c-28.2,0-51.2-22.9-51.2-51.2c0-28.2,23-51.2,51.2-51.2c28.2,0,51.2,23,51.2,51.2
			C190.6,82.6,167.6,105.6,139.4,105.6z M139.4,17.5c-20.4,0-36.9,16.6-36.9,36.9c0,20.3,16.6,36.9,36.9,36.9
			c20.3,0,36.9-16.6,36.9-36.9C176.3,34.1,159.8,17.5,139.4,17.5z"/>
	</g>
	<g display="inline">
		<path d="M44.7,105.6c-17.8,0-32.3-14.9-32.3-33.3s14.5-33.3,32.3-33.3C62.5,39.1,77,54,77,72.3S62.5,105.6,44.7,105.6z M44.7,53.3
			c-10,0-18.1,8.5-18.1,19c0,10.5,8.1,19,18.1,19c10,0,18.1-8.5,18.1-19C62.8,61.9,54.7,53.3,44.7,53.3z"/>
	</g>
	<g display="inline">
		<path d="M148.8,218.3l-1.8,0.2c-16.4,2.1-31.6,9.3-43.7,20.6l0,0l0,0c-12.3-11.3-27.9-18.4-44.5-20.2l-5.3-0.6
			c-20,0-27.3-16.3-27.3-27.3v-47.9c0-20,16.3-27.3,27.3-27.3l37.5,5.3l11.8,5.1l13.2-5.5l32.7-4.9c20,0,27.3,16.3,27.3,27.3V191
			C176,211.1,159.7,218.3,148.8,218.3z M53.4,130.1c-3,0.1-13,1.1-13,13V191c0,3,1.1,13,13,13l5.9,0.7c16.5,1.8,31.9,8.9,44.1,20.2
			l0,0l0,0c12-11.3,27.3-18.5,43.7-20.6l1.6-0.2c3.1-0.1,13-1.2,13-13v-47.9c-0.1-3-1.1-13-13-13l-33,5l-13,5.4l-12.3-5.2
			L53.4,130.1z"/>
	</g>
</g>
<g display="none">
	<g display="inline">
		<path d="M234.2,204.7C234.2,204.7,234.2,204.7,234.2,204.7c-2.2,0-4.3-0.5-6.3-1.5L193,185.9l0.3-41.7l35.1-16.9
			c2-0.9,4-1.4,6.2-1.4c3.8,0,7.5,1.5,10.1,4.2c2.7,2.7,4.1,6.3,4.1,10.1l-0.3,50.3C248.4,198.4,242,204.7,234.2,204.7z
			 M206.7,177.5L234,191c0.1,0.1,0.2,0.1,0.3,0.1c0,0,0.6,0,0.6-0.6l0.3-50.3c0-0.2,0-0.3-0.2-0.4c-0.1-0.1-0.3-0.2-0.5-0.2
			c-0.1,0-0.1,0-0.3,0.1l-27.4,13.2L206.7,177.5z"/>
	</g>
	<g display="inline">
		<path d="M139.8,105.1c-29.2,0-52.9-23.7-52.9-52.9c0-29.2,23.7-52.9,52.9-52.9c29.2,0,52.9,23.7,52.9,52.9
			C192.7,81.3,169,105.1,139.8,105.1z M139.8,14c-21,0-38.2,17.1-38.2,38.2c0,21,17.1,38.1,38.2,38.1c21,0,38.2-17.1,38.2-38.1
			C178,31.1,160.8,14,139.8,14z"/>
	</g>
	<g display="inline">
		<path d="M41.8,105.1c-18.4,0-33.4-15.4-33.4-34.4s15-34.4,33.4-34.4c18.4,0,33.4,15.4,33.4,34.4S60.3,105.1,41.8,105.1z M41.8,51
			c-10.3,0-18.7,8.8-18.7,19.6c0,10.8,8.4,19.6,18.7,19.6c10.3,0,18.7-8.8,18.7-19.6C60.5,59.8,52.2,51,41.8,51z"/>
	</g>
	<g display="inline">
		<path d="M149.4,221.6l-1.9,0.2c-16.9,2.2-32.7,9.6-45.1,21.3l0,0l0,0c-12.7-11.7-28.9-19-46-20.9l-5.5-0.6
			c-20.7,0-28.2-16.9-28.2-28.2v-49.5c0-20.7,16.9-28.2,28.2-28.2l38.8,5.5l12.2,16.1l13.7-16.4l33.8-5.1
			c20.7,0,28.2,16.9,28.2,28.2v49.5C177.6,214.1,160.8,221.6,149.4,221.6z M50.9,130.4c-3.1,0.1-13.4,1.2-13.4,13.4v49.5
			c0,3.1,1.2,13.5,13.4,13.5l6.1,0.7c17,1.9,33,9.2,45.6,20.8l0,0l0,0c12.4-11.7,28.2-19.1,45.1-21.3l1.6-0.2
			c3.2-0.1,13.5-1.2,13.5-13.5v-49.5c-0.1-3.1-1.2-13.4-13.4-13.4l-34.1,5.1L101.9,152l-12.7-16.1L50.9,130.4z"/>
	</g>
</g>
<g display="none">
	<g display="inline">
		<path d="M229,200.6C229,200.6,229,200.6,229,200.6c-2.1,0-4.1-0.5-6-1.4l-33.2-16.5l0.2-39.6l33.4-16c1.9-0.9,3.8-1.3,5.9-1.3
			c3.6,0,7.1,1.5,9.6,4c2.5,2.6,3.9,6,3.9,9.6l-0.3,47.9C242.5,194.6,236.5,200.6,229,200.6z M202.8,174.7l26,12.9
			c0.1,0.1,0.2,0.1,0.2,0.1c0,0,0.6,0,0.6-0.6l0.3-47.9c0-0.2,0-0.3-0.2-0.4c-0.1-0.1-0.3-0.2-0.4-0.2c0,0-0.1,0-0.3,0.1L203,151.2
			L202.8,174.7z"/>
	</g>
	<g display="inline">
		<path d="M139.2,105.8c-27.7,0-50.3-22.6-50.3-50.3c0-27.7,22.6-50.3,50.3-50.3c27.7,0,50.3,22.6,50.3,50.3
			C189.5,83.3,167,105.8,139.2,105.8z M139.2,19.3c-20,0-36.3,16.3-36.3,36.3c0,20,16.3,36.3,36.3,36.3c20,0,36.3-16.3,36.3-36.3
			C175.5,35.6,159.2,19.3,139.2,19.3z"/>
	</g>
	<g display="inline">
		<path d="M46.1,105.8c-17.5,0-31.8-14.7-31.8-32.7s14.3-32.7,31.8-32.7c17.5,0,31.8,14.7,31.8,32.7S63.6,105.8,46.1,105.8z
			 M46.1,54.5c-9.8,0-17.8,8.4-17.8,18.7c0,10.3,8,18.7,17.8,18.7c9.8,0,17.8-8.4,17.8-18.7C63.9,62.9,55.9,54.5,46.1,54.5z"/>
	</g>
	<g display="inline">
		<path d="M148.4,216.7l-1.8,0.2c-16.1,2.1-31.1,9.1-42.9,20.2l0,0l0,0c-12.1-11.1-27.4-18-43.8-19.9l-5.2-0.6
			c-19.7,0-26.8-16-26.8-26.8v-47.1c0-19.7,16-26.8,26.8-26.8l36.9,12l11.6,8.5l13-8.8l32.2-11.7c19.7,0,26.8,16,26.8,26.8v47.1
			C175.2,209.5,159.2,216.7,148.4,216.7z M54.7,130c-3,0.1-12.8,1.1-12.8,12.8v47.1c0,3,1.1,12.8,12.8,12.8l5.8,0.6
			c16.2,1.8,31.4,8.7,43.4,19.8l0,0l0,0c11.8-11.1,26.8-18.2,42.9-20.3l1.5-0.2c3-0.1,12.8-1.2,12.8-12.8v-47.1
			c-0.1-3-1.1-12.8-12.8-12.8L116,141.7l-12.8,8.7l-12.1-8.5L54.7,130z"/>
	</g>
</g>
<g display="none">
	<g display="inline">
		<path fill="#030104" d="M227.3,199.2C227.3,199.2,227.3,199.2,227.3,199.2c-2.1,0-4-0.5-5.9-1.4l-32.7-16.2l0.2-39l32.8-15.8
			c1.8-0.9,3.8-1.3,5.8-1.3c3.5,0,7,1.4,9.5,4c2.5,2.5,3.9,5.9,3.9,9.5l-0.3,47C240.6,193.3,234.6,199.2,227.3,199.2z M201.5,173.8
			l25.5,12.7c0.1,0.1,0.2,0.1,0.2,0.1c0,0,0.5,0,0.6-0.6l0.3-47c0-0.2,0-0.3-0.1-0.4c-0.1-0.1-0.3-0.2-0.4-0.2c0,0-0.1,0-0.2,0.1
			l-25.6,12.3L201.5,173.8z"/>
	</g>
	<g display="inline">
		<path fill="#030104" d="M139.1,106.1c-27.3,0-49.4-22.2-49.4-49.4c0-27.3,22.2-49.4,49.4-49.4c27.2,0,49.4,22.2,49.4,49.4
			C188.5,83.9,166.3,106.1,139.1,106.1z M139.1,21c-19.7,0-35.7,16-35.7,35.7c0,19.7,16,35.6,35.7,35.6c19.7,0,35.7-16,35.7-35.6
			C174.7,37,158.7,21,139.1,21z"/>
	</g>
	<g display="inline">
		<path fill="#030104" d="M47.5,106.1c-17.2,0-31.2-14.4-31.2-32.1s14-32.1,31.2-32.1c17.2,0,31.2,14.4,31.2,32.1
			S64.8,106.1,47.5,106.1z M47.5,55.6c-9.6,0-17.5,8.2-17.5,18.3c0,10.1,7.8,18.4,17.5,18.4C57.2,92.3,65,84.1,65,74
			C65,63.9,57.2,55.6,47.5,55.6z"/>
	</g>
	<g display="inline">
		<path fill="#030104" d="M148.1,215l-1.8,0.2c-15.8,2-30.6,9-42.2,19.9l0,0l0,0c-11.9-10.9-27-17.7-43-19.5L56,215
			c-19.3,0-26.4-15.8-26.4-26.4v-46.3C29.6,123,45.4,116,56,116l36.3,6.6l11.4,3.4l13-3.1l31.4-7c19.3,0,26.4,15.8,26.4,26.4v46.3
			C174.4,208,158.7,215,148.1,215z M56,129.8c-2.9,0.1-12.6,1.1-12.6,12.6v46.3c0,2.9,1.1,12.6,12.6,12.6l5.7,0.6
			c15.9,1.8,30.9,8.6,42.6,19.5l0,0l0,0c11.6-10.9,26.4-17.9,42.2-19.9l1.5-0.2c3-0.1,12.6-1.1,12.6-12.6v-46.3
			c-0.1-2.9-1.1-12.6-12.6-12.6l-31.9,6.9l-12.5,3.1l-11.4-3.4L56,129.8z"/>
	</g>
</g>
<g display="none">
	<g display="inline">
		<path fill="#030104" d="M226.7,202.1C226.7,202.1,226.7,202.1,226.7,202.1c-2,0-4-0.5-5.9-1.4l-32.5-16.1l0.2-38.7l32.6-15.7
			c1.8-0.9,3.7-1.3,5.7-1.3c3.5,0,6.9,1.4,9.4,3.9c2.5,2.5,3.9,5.8,3.8,9.4l-0.3,46.7C239.9,196.2,234,202.1,226.7,202.1z
			 M201.1,176.8l25.4,12.6c0.1,0.1,0.2,0.1,0.2,0.1c0,0,0.5,0,0.5-0.6l0.3-46.7c0-0.2,0-0.3-0.1-0.4c-0.1-0.1-0.3-0.2-0.4-0.2
			c0,0-0.1,0-0.2,0.1l-25.5,12.3L201.1,176.8z"/>
	</g>
	<g display="inline">
		<path fill="#030104" d="M139,109.5c-27.1,0-49.1-22-49.1-49.1c0-27.1,22-49.2,49.1-49.2c27.1,0,49.1,22,49.1,49.2
			C188.1,87.5,166.1,109.5,139,109.5z M139,25c-19.5,0-35.4,15.9-35.4,35.5c0,19.5,15.9,35.4,35.4,35.4c19.5,0,35.5-15.9,35.5-35.4
			C174.4,40.9,158.5,25,139,25z"/>
	</g>
	<g display="inline">
		<path fill="#030104" d="M48,109.5C30.9,109.5,17,95.2,17,77.6S30.9,45.7,48,45.7c17.1,0,31.1,14.3,31.1,31.9S65.1,109.5,48,109.5z
			 M48,59.3c-9.6,0-17.4,8.2-17.4,18.2c0,10.1,7.8,18.2,17.4,18.2c9.6,0,17.4-8.2,17.4-18.2C65.4,67.5,57.6,59.3,48,59.3z"/>
	</g>
	<g display="inline">
		<path fill="#030104" d="M148,217.8l-1.8,0.2c-15.7,2-30.4,2.3-41.9,13.1l0,0l0,0c-11.8-10.8-26.8-11-42.7-12.8l-5.1-0.6
			c-19.2,0-26.2-15.7-26.2-26.2v-46c0-19.2,15.7-26.2,26.2-26.2l36.1-0.1l11.3,7.1l12.9-6.7l31.2-0.3c19.2,0,26.2,15.7,26.2,26.2v46
			C174.2,210.8,158.5,217.8,148,217.8z M56.4,133.1c-2.9,0.1-12.5,1.1-12.5,12.5v46c0,2.9,1.1,12.5,12.5,12.5l5.7,0.6
			c15.8,1.8,30.7,1.9,42.4,12.7l0,0l0,0c11.6-10.8,26.2-11.1,41.9-13.1l1.5-0.2c3-0.1,12.5-1.1,12.5-12.5v-46
			c-0.1-2.9-1.1-12.5-12.5-12.5l-31.7,0.2l-12.4,6.8L92.5,133L56.4,133.1z"/>
	</g>
</g>
<g display="none">
	<g display="inline">
		<path d="M227.9,202.3C227.9,202.3,227.9,202.3,227.9,202.3c-2.1,0-4.1-0.5-5.9-1.4l-32.8-16.3l0.2-39.2l33-15.9
			c1.8-0.9,3.8-1.3,5.8-1.3c3.5,0,7,1.4,9.5,4c2.5,2.5,3.9,5.9,3.9,9.5l-0.3,47.3C241.2,196.4,235.2,202.3,227.9,202.3z
			 M201.9,176.7l25.7,12.7c0.1,0.1,0.2,0.1,0.2,0.1c0,0,0.6,0,0.6-0.6l0.3-47.3c0-0.2,0-0.3-0.1-0.4c-0.1-0.1-0.3-0.2-0.4-0.2
			c0,0-0.1,0-0.2,0.1l-25.8,12.4L201.9,176.7z"/>
	</g>
	<g display="inline">
		<path d="M139.1,108.7c-27.4,0-49.7-22.3-49.7-49.7c0-27.4,22.3-49.7,49.7-49.7c27.4,0,49.7,22.3,49.7,49.7
			C188.8,86.4,166.5,108.7,139.1,108.7z M139.1,23.2c-19.8,0-35.9,16.1-35.9,35.9c0,19.8,16.1,35.8,35.9,35.8
			c19.8,0,35.9-16.1,35.9-35.8C175,39.3,158.9,23.2,139.1,23.2z"/>
	</g>
	<g display="inline">
		<path d="M47.1,108.7c-17.3,0-31.4-14.5-31.4-32.3s14.1-32.3,31.4-32.3c17.3,0,31.4,14.5,31.4,32.3S64.4,108.7,47.1,108.7z
			 M47.1,58c-9.7,0-17.6,8.3-17.6,18.4c0,10.2,7.9,18.5,17.6,18.5c9.7,0,17.6-8.3,17.6-18.5C64.7,66.3,56.8,58,47.1,58z"/>
	</g>
	<g display="inline">
		<path d="M148.2,218.2l-1.8,0.2c-15.9,2-30.7,3.6-42.4,14.6l0,0l0,0c-12-11-27.1-12.4-43.2-14.2l-5.2-0.6
			c-19.4,0-26.5-15.8-26.5-26.5v-46.5c0-19.5,15.9-26.5,26.5-26.5l36.5,0.9l11.4,7.8l13.1-7.8l31.6-1c19.4,0,26.5,15.8,26.5,26.5
			v46.5C174.7,211.2,158.8,218.2,148.2,218.2z M55.6,132.6c-2.9,0.1-12.6,1.1-12.6,12.6v46.5c0,2.9,1.1,12.6,12.6,12.6l5.8,0.6
			c16,1.8,31,3.2,42.8,14.2l0,0l0,0c11.7-11,26.5-12.6,42.4-14.6l1.5-0.2c3-0.1,12.7-1.1,12.7-12.6v-46.5
			c-0.1-2.9-1.1-12.6-12.6-12.6l-32.1,0.9l-12.6,7.9l-11.4-7.8L55.6,132.6z"/>
	</g>
</g>
<g>
	<g>
		<path d="M224.2,199.4C224.2,199.4,224.2,199.4,224.2,199.4c-2,0-3.9-0.5-5.7-1.3l-31.6-15.7l0.2-37.7l31.8-15.3
			c1.8-0.8,3.6-1.3,5.6-1.3c3.4,0,6.7,1.4,9.2,3.8c2.4,2.4,3.8,5.7,3.7,9.2l-0.3,45.6C237.1,193.6,231.3,199.4,224.2,199.4z
			 M199.3,174.7L224,187c0.1,0.1,0.2,0.1,0.2,0.1c0,0,0.5,0,0.5-0.5l0.3-45.6c0-0.2,0-0.3-0.1-0.4c-0.1-0.1-0.3-0.2-0.4-0.2
			c0,0-0.1,0-0.2,0.1l-24.8,11.9L199.3,174.7z"/>
	</g>
	<g>
		<path d="M138.7,109.2c-26.4,0-47.9-21.5-47.9-47.9c0-26.4,21.5-47.9,47.9-47.9c26.4,0,47.9,21.5,47.9,47.9
			C186.6,87.7,165.1,109.2,138.7,109.2z M138.7,26.8c-19.1,0-34.5,15.5-34.5,34.5c0,19,15.5,34.5,34.5,34.5
			c19,0,34.5-15.5,34.5-34.5C173.3,42.3,157.8,26.8,138.7,26.8z"/>
	</g>
	<g>
		<path d="M50.1,109.2c-16.7,0-30.3-14-30.3-31.1s13.6-31.1,30.3-31.1c16.7,0,30.3,14,30.3,31.1S66.8,109.2,50.1,109.2z M50.1,60.3
			c-9.3,0-16.9,8-16.9,17.8c0,9.8,7.6,17.8,16.9,17.8c9.3,0,16.9-8,16.9-17.8C67,68.3,59.4,60.3,50.1,60.3z"/>
	</g>
	<g>
		<path d="M147.5,214.7l-1.7,0.2c-15.3,2-29.6,3.5-40.9,14.1l0,0l0,0c-11.5-10.6-26.1-12-41.7-13.7l-5-0.6
			c-18.7,0-25.5-15.3-25.5-25.5v-44.8c0-18.7,15.3-25.5,25.5-25.5l30.4,0.8c3.1,0.1,6.2,1.1,8.8,2.8l7,4.8l9-5.4
			c2.4-1.4,5.1-2.2,7.8-2.3l26.2-0.8c18.7,0,25.5,15.3,25.5,25.5v44.8C173,207.9,157.7,214.7,147.5,214.7z M58.3,132.2
			c-2.8,0.1-12.2,1.1-12.2,12.2v44.8c0,2.8,1.1,12.2,12.2,12.2l5.6,0.6c15.4,1.7,29.9,3.1,41.3,13.7l0,0l0,0
			c11.3-10.6,25.6-12.1,40.9-14.1l1.5-0.2c2.9-0.1,12.2-1.1,12.2-12.2v-44.8c-0.1-2.8-1.1-12.2-12.2-12.2l-26.5,0.7
			c-2.9,0.1-5.7,0.9-8.2,2.5l-8.4,5.2l-7.1-4.8c-2.6-1.8-5.6-2.8-8.8-2.8L58.3,132.2z"/>
	</g>
</g>
</svg>
