<?xml version="1.0" encoding="utf-8"?>
<!-- Generator: Adobe Illustrator 18.0.0, SVG Export Plug-In . SVG Version: 6.00 Build 0)  -->
<!DOCTYPE svg PUBLIC "-//W3C//DTD SVG 1.1//EN" "http://www.w3.org/Graphics/SVG/1.1/DTD/svg11.dtd">
<svg version="1.1" id="Слой_1" xmlns="http://www.w3.org/2000/svg" xmlns:xlink="http://www.w3.org/1999/xlink" x="0px" y="0px"
	 viewBox="0 0 512 512" enable-background="new 0 0 512 512" xml:space="preserve">
<g>
	<path fill="#1C1228" d="M487.7,219.9h-24.4v-79c0-39-48.1-72-105-72c-53.6,0-95.6,29.5-98.1,68.7c-0.7,3.5-1,7.1-1,10.7v71.7h-6.4
		v-77.5c0-39-48.1-72-105-72c-53.6,0-95.7,29.5-98.1,68.7c-0.7,3.5-1,7.1-1,10.7v70.2H24.3c-10.1,0-18.3,8.2-18.3,18.3v126.9
		c0,10.1,8.2,18.3,18.3,18.3h33.9c7.2,0,13.4-4.2,16.4-10.3h44.5V401c-16.5,3.1-32.9,9.6-32.9,23.1c0,19,28,19,63.4,19
		c35.4,0,63.4,0,63.4-19c0-13.5-16.4-20-32.9-23.1v-27.8h42.3c3,6.1,9.2,10.3,16.4,10.3H273c7.8,0,14.4-4.9,17.1-11.7h41.7v27.8
		c-16.5,3.1-32.9,9.6-32.9,23.1c0,19,28,19,63.4,19c35.4,0,63.4,0,63.4-19c0-13.5-16.4-20-32.9-23.1v-27.8h43.9
		c2.7,6.9,9.3,11.7,17.1,11.7h33.9c10.1,0,18.3-8.2,18.3-18.3V238.2C506,228.1,497.8,219.9,487.7,219.9z M188.1,422.7
		c-10.5,1.5-28.5,1.5-38.4,1.5s-27.9,0-38.4-1.5c4.1-1.5,10.2-3.1,18.5-4.1c4.7-0.6,8.3-4.6,8.3-9.4V374h23.2v35.1
		c0,4.8,3.5,8.8,8.3,9.4C177.9,419.6,184,421.2,188.1,422.7z M400.6,421.2c-10.5,1.5-28.5,1.5-38.4,1.5s-27.9,0-38.4-1.5
		c4.1-1.5,10.2-3.1,18.5-4.1c4.7-0.6,8.3-4.6,8.3-9.4v-35.1h23.2v35.1c0,4.8,3.5,8.8,8.3,9.4C390.4,418.1,396.5,419.7,400.6,421.2z
		 M278.9,140.7c0.1-0.5,0.2-0.9,0.2-1.4c1.5-28.8,36.3-51.4,79.3-51.4c45.8,0,86,24.8,86,53.1v81c-5.9,3.1-9.9,9.2-9.9,16.3v78.1
		H291.3v-78.1c0-8.3-5.6-15.3-13.2-17.6v-72.4C278.1,145.7,278.4,143.1,278.9,140.7z M240.7,238.9h30.7l0.3,125.7h-31L240.7,238.9z
		 M67.7,149.7c0-2.5,0.3-5.1,0.8-7.6c0.1-0.5,0.2-0.9,0.2-1.4c1.5-28.8,36.3-51.4,79.3-51.4c45.8,0,86,24.8,86,53.1v78.2
		c-7.6,2.2-13.2,9.3-13.2,17.6v79.6H77.6v-79.6c0-7.1-4-13.2-9.9-16.3V149.7z M57.6,364.5H24.9V238.9h32.7L57.6,364.5L57.6,364.5z
		 M77.6,336.8h143.1v17.5H77.6V336.8z M434.4,352.8H291.3v-17.5h143.1V352.8z M487.1,364.5h-32.7V238.9h32.7V364.5z"/>
	<circle fill="#1C1228" cx="362.6" cy="172.3" r="16.9"/>
	<circle fill="#1C1228" cx="149.7" cy="172.3" r="16.9"/>
</g>
</svg>
