<?xml version="1.0" encoding="utf-8"?>
<!-- Generator: Adobe Illustrator 18.0.0, SVG Export Plug-In . SVG Version: 6.00 Build 0)  -->
<!DOCTYPE svg PUBLIC "-//W3C//DTD SVG 1.1//EN" "http://www.w3.org/Graphics/SVG/1.1/DTD/svg11.dtd">
<svg version="1.1" id="Слой_1" xmlns="http://www.w3.org/2000/svg" xmlns:xlink="http://www.w3.org/1999/xlink" x="0px" y="0px"
	 viewBox="0 0 512 512" enable-background="new 0 0 512 512" xml:space="preserve">
<g>
	<g>
		<path fill="#1C1228" d="M171.8,215.1c-23.2,0-42-18.8-42-42c0-23.1,18.8-42,42-42s42,18.8,42,42
			C213.8,196.2,195,215.1,171.8,215.1z M171.8,149.6c-12.9,0-23.5,10.5-23.5,23.5c0,12.9,10.5,23.5,23.5,23.5
			c12.9,0,23.5-10.5,23.5-23.5C195.3,160.1,184.8,149.6,171.8,149.6z"/>
	</g>
	<g>
		<path fill="#1C1228" d="M122.7,369.4c-23.2,0-42-18.8-42-42c0-23.2,18.8-42,42-42s42,18.8,42,42
			C164.7,350.6,145.8,369.4,122.7,369.4z M122.7,303.9c-12.9,0-23.5,10.5-23.5,23.5c0,12.9,10.5,23.5,23.5,23.5
			c12.9,0,23.5-10.5,23.5-23.5S135.6,303.9,122.7,303.9z"/>
	</g>
	<g>
		<path fill="#1C1228" d="M221,369.4c-23.1,0-42-18.8-42-42c0-23.2,18.8-42,42-42c23.2,0,42,18.8,42,42
			C263,350.6,244.2,369.4,221,369.4z M221,303.9c-12.9,0-23.5,10.5-23.5,23.5c0,12.9,10.5,23.5,23.5,23.5
			c12.9,0,23.5-10.5,23.5-23.5S234,303.9,221,303.9z"/>
	</g>
	<g>
		<path fill="#1C1228" d="M250.5,276.3c-23.2,0-42-18.8-42-42s18.8-42,42-42s42,18.8,42,42C292.5,257.5,273.7,276.3,250.5,276.3z
			 M250.5,210.9c-12.9,0-23.5,10.5-23.5,23.5s10.5,23.5,23.5,23.5c12.9,0,23.5-10.5,23.5-23.5S263.5,210.9,250.5,210.9z"/>
	</g>
	<g>
		<path fill="#1C1228" d="M93.2,276.3c-23.2,0-42-18.8-42-42s18.8-42,42-42c23.1,0,42,18.8,42,42
			C135.1,257.5,116.3,276.3,93.2,276.3z M93.2,210.9c-12.9,0-23.5,10.5-23.5,23.5s10.5,23.5,23.5,23.5c12.9,0,23.5-10.5,23.5-23.5
			S106.1,210.9,93.2,210.9z"/>
	</g>
	<path fill="#1C1228" d="M502.8,380.4c-49-42.1-81.9-19.1-111,1.3c-14.3,10-27.8,19.4-42.8,21.7c-25.7,3.8-37.9-23.7-43.6-47.5
		c0-0.1-0.1-0.2-0.1-0.3c20.8-27.8,33.2-62.2,33.2-99.5c0-91.7-74.6-166.2-166.2-166.2C80.6,89.8,6,164.3,6,256
		c0,91.7,74.6,166.2,166.2,166.2c46.4,0,88.4-19.1,118.6-49.9c10.6,32.5,29,49.9,53,49.9c2.6,0,5.2-0.2,7.9-0.6
		c19.4-2.9,35.3-14,50.7-24.8c28.1-19.6,50.2-35.2,88.3-2.4c3.9,3.3,9.7,2.9,13.1-1C507.1,389.5,506.7,383.7,502.8,380.4z
		 M172.2,403.7c-81.4,0-147.7-66.3-147.7-147.7c0-81.4,66.3-147.7,147.7-147.7c81.4,0,147.7,66.3,147.7,147.7
		C319.9,337.4,253.7,403.7,172.2,403.7z"/>
</g>
</svg>
