<?xml version="1.0" encoding="utf-8"?>
<!-- Generator: Adobe Illustrator 16.0.0, SVG Export Plug-In . SVG Version: 6.00 Build 0)  -->
<!DOCTYPE svg PUBLIC "-//W3C//DTD SVG 1.1//EN" "http://www.w3.org/Graphics/SVG/1.1/DTD/svg11.dtd" [
	<!ENTITY ns_extend "http://ns.adobe.com/Extensibility/1.0/">
	<!ENTITY ns_ai "http://ns.adobe.com/AdobeIllustrator/10.0/">
	<!ENTITY ns_graphs "http://ns.adobe.com/Graphs/1.0/">
	<!ENTITY ns_vars "http://ns.adobe.com/Variables/1.0/">
	<!ENTITY ns_imrep "http://ns.adobe.com/ImageReplacement/1.0/">
	<!ENTITY ns_sfw "http://ns.adobe.com/SaveForWeb/1.0/">
	<!ENTITY ns_custom "http://ns.adobe.com/GenericCustomNamespace/1.0/">
	<!ENTITY ns_adobe_xpath "http://ns.adobe.com/XPath/1.0/">
]>
<svg version="1.1" id="Layer_1" xmlns:x="&ns_extend;" xmlns:i="&ns_ai;" xmlns:graph="&ns_graphs;"
	 xmlns="http://www.w3.org/2000/svg" xmlns:xlink="http://www.w3.org/1999/xlink" x="0px" y="0px" width="665.5307617px"
	 height="173.2792969px" viewBox="0 0 665.5307617 173.2792969" enable-background="new 0 0 665.5307617 173.2792969"
	 xml:space="preserve">
<metadata>
	<sfw  xmlns="&ns_sfw;">
		<slices></slices>
		<sliceSourceBounds  width="1300" height="800" bottomLeftOrigin="true" y="-800" x="0"></sliceSourceBounds>
		<optimizationSettings>
			<targetSettings  fileFormat="PNG24Format" targetSettingsID="0">
				<PNG24Format  transparency="true" interlaced="true" filtered="false" matteColor="#FFFFFF" noMatteColor="false">
					</PNG24Format>
			</targetSettings>
		</optimizationSettings>
	</sfw>
</metadata>
<rect x="-391.4692383" y="-297.4550781" display="none" width="1300" height="800"/>
<g>
	<path fill="#FFFFFF" d="M6.3999023,134.9990234V22.996582h12.4804688v100.6420898h32.0009766v11.3603516H6.3999023z"/>
	<path fill="#FFFFFF" d="M59.3583984,50.0371094c0-17.1206055,8.4804688-28.1606445,25.6005859-28.1606445
		c17.2807617,0,25.7607422,11.0400391,25.7607422,28.1606445v57.921875c0,16.9599609-8.4799805,28.1601562-25.7607422,28.1601562
		c-17.1201172,0-25.6005859-11.2001953-25.6005859-28.1601562V50.0371094z M71.6787109,108.5986328
		c0,10.2402344,4.3203125,16.1601562,13.2802734,16.1601562c9.1206055,0,13.2802734-5.9199219,13.2802734-16.1601562V49.3969727
		c0-10.0800781-4.159668-16.1601562-13.2802734-16.1601562c-8.9599609,0-13.2802734,6.0800781-13.2802734,16.1601562V108.5986328z"
		/>
	<path fill="#FFFFFF" d="M131.8388672,22.996582l18.2402344,97.4418945L168.159668,22.996582h11.5205078l-20.9604492,112.0024414
		h-18.4008789L119.1987305,22.996582H131.8388672z"/>
	<path fill="#FFFFFF" d="M229.1196289,72.5976562v11.2001953h-27.3608398v39.8408203h33.6010742v11.3603516h-46.0810547V22.996582
		h46.0810547v11.3603516h-33.6010742v38.2407227H229.1196289z"/>
	<path fill="#FFFFFF" d="M292.3178711,112.4384766v22.5605469h-12.1611328v-22.5605469h-36.1606445V101.078125l34.7202148-78.081543
		h13.6015625v78.081543h8.9589844v11.3603516H292.3178711z M255.5166016,101.078125h24.6401367V46.3569336L255.5166016,101.078125z"
		/>
	<path fill="#FFFFFF" d="M361.7563477,134.8388672h-12l-18.5605469-89.1220703v89.2822266H320.315918V22.996582h17.4394531
		l18.4003906,89.4418945l17.7607422-89.4418945h17.4404297v112.0024414h-11.8398438V44.9169922L361.7563477,134.8388672z"/>
	<path fill="#FFFFFF" d="M403.1948242,50.0371094c0-17.1206055,8.4794922-28.1606445,25.6005859-28.1606445
		c17.2802734,0,25.7607422,11.0400391,25.7607422,28.1606445v57.921875c0,16.9599609-8.4804688,28.1601562-25.7607422,28.1601562
		c-17.1210938,0-25.6005859-11.2001953-25.6005859-28.1601562V50.0371094z M415.5151367,108.5986328
		c0,10.2402344,4.3193359,16.1601562,13.2802734,16.1601562c9.1201172,0,13.2802734-5.9199219,13.2802734-16.1601562V49.3969727
		c0-10.0800781-4.1601562-16.1601562-13.2802734-16.1601562c-8.9609375,0-13.2802734,6.0800781-13.2802734,16.1601562V108.5986328z"
		/>
	<path fill="#FFFFFF" d="M475.675293,22.996582l18.2402344,97.4418945l18.0800781-97.4418945h11.5205078l-20.9609375,112.0024414
		h-18.4003906L463.034668,22.996582H475.675293z"/>
	<path fill="#FFFFFF" d="M545.5952148,22.996582v112.0024414h-12.4804688V22.996582H545.5952148z"/>
	<path fill="#FFFFFF" d="M598.2338867,72.5976562v11.2001953h-27.3603516v39.8408203h33.6005859v11.3603516h-46.0810547V22.996582
		h46.0810547v11.3603516h-33.6005859v38.2407227H598.2338867z"/>
	<path fill="#FFFFFF" d="M664.4711914,49.8769531v3.0400391h-11.8398438v-3.6796875
		c0-10.0805664-3.8398438-16.0004883-12.8007812-16.0004883c-8.9599609,0-12.7998047,5.9199219-12.7998047,15.840332
		c0,25.1206055,37.6005859,27.5205078,37.6005859,59.0410156c0,16.9609375-8.1601562,28.0009766-25.2802734,28.0009766
		s-25.1210938-11.0400391-25.1210938-28.0009766v-6.3999023h11.6806641v7.0395508
		c0,10.0810547,4.1601562,16.0009766,13.1201172,16.0009766c8.9609375,0,13.1201172-5.9199219,13.1201172-16.0009766
		c0-24.9599609-37.4404297-27.3598633-37.4404297-58.8808594c0-17.2802734,8-28.0004883,24.8007812-28.0004883
		C656.4711914,21.8764648,664.4711914,32.9165039,664.4711914,49.8769531z"/>
</g>
<text transform="matrix(1.04 0 0 1 -286 365.1816406)" display="none"><tspan x="0" y="0" display="inline" fill="#FFFFFF" font-family="'CanterBold'" font-size="160">Love</tspan><tspan x="211.3572388" y="0" display="inline" fill="#FFFFFF" font-family="'CanterBold'" font-size="160" letter-spacing="8.6538467">4</tspan><tspan x="274.3971558" y="0" display="inline" fill="#FFFFFF" font-family="'CanterBold'" font-size="160">movies</tspan></text>
<g display="none">
	<text transform="matrix(1.04 0 0 1 9.2915039 134.9990234)" display="inline"><tspan x="0" y="0" fill="#FFFFFF" font-family="'Simplifica'" font-size="160" letter-spacing="2.8846154">Love4mo</tspan><tspan x="421.1116028" y="0" fill="#FFFFFF" font-family="'Simplifica'" font-size="160" letter-spacing="3.846154">v</tspan><tspan x="487.8295898" y="0" fill="#FFFFFF" font-family="'Simplifica'" font-size="160" letter-spacing="4.8076925">i</tspan><tspan x="509.9074097" y="0" fill="#FFFFFF" font-family="'Simplifica'" font-size="160" letter-spacing="1.923077">e</tspan><tspan x="562.3882446" y="0" fill="#FFFFFF" font-family="'Simplifica'" font-size="160" letter-spacing="2.8846154">s</tspan></text>
</g>
</svg>
