<?xml version="1.0" encoding="utf-8"?>
<!-- Generator: Adobe Illustrator 16.0.0, SVG Export Plug-In . SVG Version: 6.00 Build 0)  -->
<!DOCTYPE svg PUBLIC "-//W3C//DTD SVG 1.1//EN" "http://www.w3.org/Graphics/SVG/1.1/DTD/svg11.dtd" [
	<!ENTITY ns_extend "http://ns.adobe.com/Extensibility/1.0/">
	<!ENTITY ns_ai "http://ns.adobe.com/AdobeIllustrator/10.0/">
	<!ENTITY ns_graphs "http://ns.adobe.com/Graphs/1.0/">
	<!ENTITY ns_vars "http://ns.adobe.com/Variables/1.0/">
	<!ENTITY ns_imrep "http://ns.adobe.com/ImageReplacement/1.0/">
	<!ENTITY ns_sfw "http://ns.adobe.com/SaveForWeb/1.0/">
	<!ENTITY ns_custom "http://ns.adobe.com/GenericCustomNamespace/1.0/">
	<!ENTITY ns_adobe_xpath "http://ns.adobe.com/XPath/1.0/">
]>
<svg version="1.1" id="Layer_1" xmlns:x="&ns_extend;" xmlns:i="&ns_ai;" xmlns:graph="&ns_graphs;"
	 xmlns="http://www.w3.org/2000/svg" xmlns:xlink="http://www.w3.org/1999/xlink" x="0px" y="0px" width="676.7895508px"
	 height="164.6391602px" viewBox="0 0 676.7895508 164.6391602" enable-background="new 0 0 676.7895508 164.6391602"
	 xml:space="preserve">
<metadata>
	<sfw  xmlns="&ns_sfw;">
		<slices></slices>
		<sliceSourceBounds  height="800" width="1300" x="0" y="-800" bottomLeftOrigin="true"></sliceSourceBounds>
		<optimizationSettings>
			<targetSettings  fileFormat="PNG24Format" targetSettingsID="0">
				<PNG24Format  transparency="true" noMatteColor="false" matteColor="#FFFFFF" filtered="false" interlaced="true">
					</PNG24Format>
			</targetSettings>
		</optimizationSettings>
	</sfw>
</metadata>
<rect x="-391.4692383" y="-296.4555664" display="none" width="1300" height="800"/>
<g>
	<path fill="#FFFFFF" d="M40.6098633,103.8481445h24.300293v12.1503906H25.3999023V50.4335938h15.2099609V103.8481445z"/>
	<path fill="#FFFFFF" d="M133.2202148,83.1933594c0,4.7407227-0.8173828,9.1508789-2.4521484,13.2299805
		c-1.6357422,4.0800781-3.9375,7.6279297-6.9077148,10.6425781s-6.5473633,5.3779297-10.7324219,7.0878906
		s-8.8276367,2.5644531-13.9277344,2.5644531s-9.75-0.8544922-13.949707-2.5644531
		c-4.2006836-1.7099609-7.7929688-4.0732422-10.777832-7.0878906c-2.9853516-3.0146484-5.2949219-6.5625-6.9296875-10.6425781
		c-1.6357422-4.0791016-2.4526367-8.4892578-2.4526367-13.2299805c0-4.7397461,0.8168945-9.1494141,2.4526367-13.2299805
		c1.6347656-4.0795898,3.9443359-7.6196289,6.9296875-10.6196289c2.9848633-2.9995117,6.5771484-5.3549805,10.777832-7.0654297
		c4.199707-1.7099609,8.8496094-2.5649414,13.949707-2.5649414s9.7426758,0.862793,13.9277344,2.5878906
		s7.762207,4.0878906,10.7324219,7.0874023c2.9702148,3,5.2719727,6.5405273,6.9077148,10.6196289
		C132.402832,74.0888672,133.2202148,78.4838867,133.2202148,83.1933594z M117.6503906,83.1933594
		c0-3.2397461-0.4204102-6.1572266-1.2602539-8.7524414c-0.8398438-2.5942383-2.0473633-4.7924805-3.6220703-6.5922852
		c-1.5751953-1.800293-3.503418-3.1796875-5.7827148-4.1401367c-2.2802734-0.9599609-4.8754883-1.4399414-7.7851562-1.4399414
		c-2.9404297,0-5.5571289,0.4799805-7.8525391,1.4399414c-2.2949219,0.9604492-4.2299805,2.3398438-5.8046875,4.1401367
		c-1.5751953,1.7998047-2.7832031,3.9980469-3.6225586,6.5922852c-0.840332,2.5952148-1.2602539,5.5126953-1.2602539,8.7524414
		c0,3.2705078,0.4199219,6.203125,1.2602539,8.7978516c0.8393555,2.5952148,2.0473633,4.7924805,3.6225586,6.5922852
		c1.574707,1.7998047,3.5097656,3.1728516,5.8046875,4.1171875c2.2954102,0.9453125,4.9121094,1.4179688,7.8525391,1.4179688
		c2.909668,0,5.5048828-0.4726562,7.7851562-1.4179688c2.2792969-0.9443359,4.2075195-2.3173828,5.7827148-4.1171875
		c1.574707-1.7998047,2.7822266-3.9970703,3.6220703-6.5922852
		C117.2299805,89.3964844,117.6503906,86.4638672,117.6503906,83.1933594z"/>
	<path fill="#FFFFFF" d="M132.4091797,50.4335938h12.2402344c1.3193359,0,2.3994141,0.300293,3.2397461,0.8999023
		c0.8393555,0.6005859,1.4399414,1.3950195,1.7998047,2.3852539l12.6904297,35.0996094
		c0.5693359,1.5302734,1.1474609,3.1953125,1.7324219,4.9951172c0.5849609,1.800293,1.1318359,3.6899414,1.6425781,5.6704102
		c0.4194336-1.9804688,0.9067383-3.8701172,1.4624023-5.6704102c0.5546875-1.7998047,1.1025391-3.4648438,1.6425781-4.9951172
		L181.4589844,53.71875c0.2998047-0.8398438,0.8847656-1.5976562,1.7553711-2.2729492
		c0.8696289-0.6748047,1.9350586-1.012207,3.1948242-1.012207h12.3300781l-26.2802734,65.5649414h-13.7700195
		L132.4091797,50.4335938z"/>
	<path fill="#FFFFFF" d="M246.3491211,50.4335938v11.699707h-26.909668v15.300293h20.6098633v11.25h-20.6098633v15.6147461
		h26.909668v11.7001953h-42.2099609V50.4335938H246.3491211z"/>
	<path fill="#FFFFFF" d="M288.4233398,92.7333984h9.7646484v4.590332c0,0.4804688-0.1425781,0.8847656-0.4267578,1.2148438
		c-0.2861328,0.3300781-0.7285156,0.4951172-1.328125,0.4951172h-8.0097656v16.9648438h-7.0654297V99.0336914h-28.574707
		c-0.6005859,0-1.1181641-0.1728516-1.5527344-0.5175781c-0.4350586-0.3447266-0.7128906-0.7724609-0.8325195-1.2822266
		l-0.8100586-4.0952148l31.3647461-41.625h7.4707031V92.7333984z M281.3579102,66.1386719
		c0-0.7797852,0.0224609-1.6201172,0.0673828-2.5200195s0.1425781-1.8295898,0.2929688-2.7900391l-23.4453125,31.9047852h23.0849609
		V66.1386719z"/>
	<path fill="#FFFFFF" d="M346.0444336,89.5800781c0.5546875,1.230957,1.0859375,2.4926758,1.5976562,3.7836914
		c0.5097656-1.3212891,1.0488281-2.6054688,1.6191406-3.8520508c0.5703125-1.2456055,1.1542969-2.4545898,1.7558594-3.6259766
		l16.8300781-33.1552734c0.2988281-0.5698242,0.6074219-1.0131836,0.921875-1.328125s0.6679688-0.5478516,1.0585938-0.6982422
		c0.3886719-0.1503906,0.8320312-0.2255859,1.3261719-0.2255859c0.4960938,0,1.0722656,0,1.7324219,0h11.6113281v65.5200195
		h-13.4101562V78.2885742c0-1.8295898,0.0898438-3.8095703,0.2695312-5.9399414l-17.3710938,33.7045898
		c-0.5390625,1.0507812-1.2675781,1.8457031-2.1816406,2.3857422c-0.9160156,0.5400391-1.9570312,0.8095703-3.1269531,0.8095703
		h-2.0703125c-1.1699219,0-2.2128906-0.2695312-3.1269531-0.8095703c-0.9160156-0.5400391-1.6425781-1.3349609-2.1835938-2.3857422
		l-17.4589844-33.7495117c0.1191406,1.050293,0.2089844,2.0922852,0.2695312,3.1274414
		c0.0595703,1.034668,0.0898438,1.987793,0.0898438,2.8574219v37.7099609h-13.4101562V50.4785156h11.609375
		c0.6601562,0,1.2382812,0,1.7333984,0s0.9365234,0.0751953,1.3271484,0.2255859
		c0.3896484,0.1503906,0.7421875,0.3833008,1.0576172,0.6982422s0.6220703,0.7583008,0.9228516,1.328125l16.875,33.2905273
		C344.9116211,87.1625977,345.487793,88.3486328,346.0444336,89.5800781z"/>
	<path fill="#FFFFFF" d="M460.0073242,83.1933594c0,4.7407227-0.8183594,9.1508789-2.453125,13.2299805
		c-1.6347656,4.0800781-3.9375,7.6279297-6.9072266,10.6425781s-6.5478516,5.3779297-10.7324219,7.0878906
		c-4.1855469,1.7099609-8.828125,2.5644531-13.9277344,2.5644531c-5.1005859,0-9.75-0.8544922-13.9501953-2.5644531
		s-7.7919922-4.0732422-10.7773438-7.0878906s-5.2949219-6.5625-6.9296875-10.6425781
		c-1.6357422-4.0791016-2.4521484-8.4892578-2.4521484-13.2299805c0-4.7397461,0.8164062-9.1494141,2.4521484-13.2299805
		c1.6347656-4.0795898,3.9443359-7.6196289,6.9296875-10.6196289c2.9853516-2.9995117,6.5771484-5.3549805,10.7773438-7.0654297
		c4.2001953-1.7099609,8.8496094-2.5649414,13.9501953-2.5649414c5.0996094,0,9.7421875,0.862793,13.9277344,2.5878906
		c4.1845703,1.7250977,7.7626953,4.0878906,10.7324219,7.0874023c2.9697266,3,5.2724609,6.5405273,6.9072266,10.6196289
		C459.1889648,74.0888672,460.0073242,78.4838867,460.0073242,83.1933594z M444.4370117,83.1933594
		c0-3.2397461-0.4208984-6.1572266-1.2597656-8.7524414c-0.8408203-2.5942383-2.0478516-4.7924805-3.6230469-6.5922852
		c-1.5751953-1.800293-3.5029297-3.1796875-5.7822266-4.1401367c-2.2802734-0.9599609-4.875-1.4399414-7.7851562-1.4399414
		c-2.9404297,0-5.5576172,0.4799805-7.8525391,1.4399414c-2.2949219,0.9604492-4.2294922,2.3398438-5.8046875,4.1401367
		c-1.5751953,1.7998047-2.7832031,3.9980469-3.6230469,6.5922852c-0.8398438,2.5952148-1.2597656,5.5126953-1.2597656,8.7524414
		c0,3.2705078,0.4199219,6.203125,1.2597656,8.7978516c0.8398438,2.5952148,2.0478516,4.7924805,3.6230469,6.5922852
		s3.5097656,3.1728516,5.8046875,4.1171875c2.2949219,0.9453125,4.9121094,1.4179688,7.8525391,1.4179688
		c2.9101562,0,5.5048828-0.4726562,7.7851562-1.4179688c2.2792969-0.9443359,4.2070312-2.3173828,5.7822266-4.1171875
		s2.7822266-3.9970703,3.6230469-6.5922852C444.0161133,89.3964844,444.4370117,86.4638672,444.4370117,83.1933594z"/>
	<path fill="#FFFFFF" d="M459.1958008,50.4335938h12.2402344c1.3193359,0,2.3994141,0.300293,3.2402344,0.8999023
		c0.8388672,0.6005859,1.4394531,1.3950195,1.7998047,2.3852539l12.6894531,35.0996094
		c0.5693359,1.5302734,1.1474609,3.1953125,1.7324219,4.9951172c0.5849609,1.800293,1.1328125,3.6899414,1.6425781,5.6704102
		c0.4199219-1.9804688,0.9072266-3.8701172,1.4628906-5.6704102c0.5546875-1.7998047,1.1025391-3.4648438,1.6425781-4.9951172
		L508.2456055,53.71875c0.2998047-0.8398438,0.8847656-1.5976562,1.7548828-2.2729492
		c0.8701172-0.6748047,1.9355469-1.012207,3.1953125-1.012207h12.3300781l-26.2802734,65.5649414h-13.7695312
		L459.1958008,50.4335938z"/>
	<path fill="#FFFFFF" d="M547.5756836,115.9985352h-15.2998047V50.4335938h15.2998047V115.9985352z"/>
	<path fill="#FFFFFF" d="M601.9350586,50.4335938v11.699707h-26.9101562v15.300293h20.609375v11.25h-20.609375v15.6147461
		h26.9101562v11.7001953h-42.2099609V50.4335938H601.9350586z"/>
	<path fill="#FFFFFF" d="M647.1137695,63.753418c-0.4501953,0.7202148-0.9228516,1.2602539-1.4179688,1.6201172
		s-1.1328125,0.5400391-1.9121094,0.5400391c-0.6904297,0-1.4335938-0.2172852-2.2275391-0.6523438
		c-0.7958984-0.4345703-1.6953125-0.9228516-2.7001953-1.4628906c-1.0058594-0.5400391-2.1533203-1.0268555-3.4423828-1.4624023
		c-1.2900391-0.4345703-2.7607422-0.6523438-4.4101562-0.6523438c-2.8505859,0-4.9726562,0.6074219-6.3671875,1.8222656
		c-1.3955078,1.215332-2.0927734,2.8579102-2.0927734,4.9277344c0,1.3203125,0.4199219,2.4150391,1.2597656,3.2851562
		s1.9423828,1.6196289,3.3076172,2.25c1.3652344,0.6298828,2.9248047,1.2075195,4.6796875,1.7324219
		s3.5478516,1.1098633,5.3779297,1.7548828c1.8291016,0.6455078,3.6220703,1.402832,5.3769531,2.2724609
		c1.7558594,0.8706055,3.3154297,1.9799805,4.6806641,3.3300781c1.3642578,1.3500977,2.4667969,2.9926758,3.3076172,4.9272461
		c0.8388672,1.9350586,1.2597656,4.2680664,1.2597656,6.9970703c0,3.03125-0.5253906,5.8662109-1.5751953,8.5058594
		c-1.0507812,2.6396484-2.5722656,4.9423828-4.5673828,6.9072266s-4.4550781,3.5097656-7.3798828,4.6347656
		s-6.2480469,1.6875-9.9677734,1.6875c-2.0400391,0-4.1171875-0.2099609-6.2324219-0.6298828
		s-4.1621094-1.0126953-6.1425781-1.7773438c-1.9794922-0.7646484-3.8408203-1.671875-5.5800781-2.7226562
		c-1.7402344-1.0498047-3.2548828-2.2197266-4.5449219-3.5097656l4.5-7.1103516
		c0.3300781-0.5400391,0.7949219-0.9746094,1.3955078-1.3046875c0.5996094-0.3300781,1.2441406-0.4951172,1.9345703-0.4951172
		c0.9003906,0,1.8066406,0.2851562,2.7226562,0.8554688c0.9150391,0.5703125,1.9492188,1.2001953,3.1044922,1.8896484
		c1.1552734,0.6904297,2.4824219,1.3203125,3.9824219,1.8896484c1.5,0.5703125,3.2695312,0.8554688,5.3105469,0.8554688
		c2.7597656,0,4.9052734-0.6074219,6.4345703-1.8222656c1.5302734-1.2158203,2.2949219-3.1425781,2.2949219-5.7832031
		c0-1.5292969-0.4199219-2.7744141-1.2597656-3.7348633c-0.8398438-0.9594727-1.9423828-1.7548828-3.3076172-2.3847656
		s-2.9179688-1.1850586-4.6572266-1.6650391c-1.7402344-0.4794922-3.5253906-1.0126953-5.3544922-1.5976562
		c-1.8310547-0.5849609-3.6162109-1.3046875-5.3554688-2.159668c-1.7402344-0.8549805-3.2929688-1.9799805-4.6572266-3.375
		c-1.3662109-1.3950195-2.4677734-3.1347656-3.3076172-5.2202148c-0.8408203-2.0849609-1.2597656-4.6577148-1.2597656-7.7172852
		c0-2.4599609,0.4941406-4.8603516,1.484375-7.2001953s2.4453125-4.4248047,4.3652344-6.2548828
		c1.9199219-1.8295898,4.2753906-3.2919922,7.0654297-4.3876953c2.7900391-1.0947266,5.984375-1.6425781,9.5849609-1.6425781
		c2.0087891,0,3.9667969,0.1577148,5.8720703,0.4726562s3.7128906,0.7802734,5.4228516,1.3950195
		c1.7099609,0.6152344,3.3076172,1.3500977,4.7919922,2.2050781c1.4853516,0.8549805,2.8125,1.8222656,3.9824219,2.9023438
		L647.1137695,63.753418z"/>
</g>
<text transform="matrix(1.04 0 0 1 -286 366.1811523)" display="none"><tspan x="0" y="0" display="inline" fill="#FFFFFF" font-family="'CanterBold'" font-size="160">Love</tspan><tspan x="211.3572388" y="0" display="inline" fill="#FFFFFF" font-family="'CanterBold'" font-size="160" letter-spacing="8.6538467">4</tspan><tspan x="274.3971558" y="0" display="inline" fill="#FFFFFF" font-family="'CanterBold'" font-size="160">movies</tspan></text>
<g display="none">
	<text transform="matrix(1.04 0 0 1 9.2915039 135.9985352)" display="inline"><tspan x="0" y="0" fill="#FFFFFF" font-family="'Simplifica'" font-size="160" letter-spacing="2.8846154">Love4mo</tspan><tspan x="421.1097107" y="0" fill="#FFFFFF" font-family="'Simplifica'" font-size="160" letter-spacing="3.846154">v</tspan><tspan x="487.8277283" y="0" fill="#FFFFFF" font-family="'Simplifica'" font-size="160" letter-spacing="4.8076925">i</tspan><tspan x="509.9074097" y="0" fill="#FFFFFF" font-family="'Simplifica'" font-size="160" letter-spacing="1.923077">e</tspan><tspan x="562.3882446" y="0" fill="#FFFFFF" font-family="'Simplifica'" font-size="160" letter-spacing="2.8846154">s</tspan></text>
</g>
</svg>
