<?xml version="1.0" encoding="utf-8"?>
<!-- Generator: Adobe Illustrator 16.0.0, SVG Export Plug-In . SVG Version: 6.00 Build 0)  -->
<!DOCTYPE svg PUBLIC "-//W3C//DTD SVG 1.1//EN" "http://www.w3.org/Graphics/SVG/1.1/DTD/svg11.dtd">
<svg version="1.1" id="Layer_1" xmlns="http://www.w3.org/2000/svg" xmlns:xlink="http://www.w3.org/1999/xlink" x="0px" y="0px"
	 width="297.16px" height="328.249px" viewBox="0 0 297.16 328.249" enable-background="new 0 0 297.16 328.249"
	 xml:space="preserve">
<polygon fill="#FFFFFF" points="229.562,173.694 229.251,223.309 291.679,254.277 292.375,143.514 "/>
<path fill="#FFFFFF" d="M63.575,3.495c-18.888,0-33.377,5.176-43.065,15.384C11.402,28.474,6.785,42.277,6.785,59.907
	c0,17.628,4.617,31.433,13.725,41.027c9.688,10.209,24.179,15.385,43.065,15.385c18.889,0,33.377-5.176,43.066-15.385
	c9.107-9.594,13.725-23.398,13.725-41.027c0-17.63-4.618-31.434-13.725-41.028C96.953,8.671,82.464,3.495,63.575,3.495z"/>
<path fill="#FFFFFF" d="M224.643,18.879c-9.688-10.208-24.179-15.384-43.065-15.384c-18.889,0-33.378,5.176-43.066,15.384
	c-9.107,9.595-13.725,23.398-13.725,41.028c0,17.629,4.618,31.433,13.725,41.027c9.688,10.209,24.178,15.385,43.066,15.385
	c18.887,0,33.377-5.176,43.065-15.385c9.108-9.595,13.726-23.399,13.726-41.027C238.368,42.277,233.751,28.475,224.643,18.879z"/>
<path fill="#FFFFFF" d="M217.278,237.351v-62.39c0-26.159-17.857-43.601-55.72-43.601c-17.973,0-39.013,7.688-39.013,27.236
	c0-21.296-21.041-27.236-39.016-27.236c-37.862,0-55.719,17.441-55.719,43.601l0.993,74.179l0,0
	c10.058,54.087,93.773-3.643,93.773,71.614c0-75.233,83.664-17.562,93.766-71.562l0,0l0.936-8.698
	c0.041-1.02,0.063-2.063,0.063-3.144H217.278z"/>
</svg>
