<?xml version="1.0" encoding="utf-8"?>
<!-- Generator: Adobe Illustrator 16.0.0, SVG Export Plug-In . SVG Version: 6.00 Build 0)  -->
<!DOCTYPE svg PUBLIC "-//W3C//DTD SVG 1.1//EN" "http://www.w3.org/Graphics/SVG/1.1/DTD/svg11.dtd">
<svg version="1.1" id="Layer_1" xmlns="http://www.w3.org/2000/svg" xmlns:xlink="http://www.w3.org/1999/xlink" x="0px" y="0px"
	 width="401.977px" height="419.186px" viewBox="0 0 401.977 419.186" enable-background="new 0 0 401.977 419.186"
	 xml:space="preserve">
<path fill="#FFFFFF" d="M289.901,233.497l-0.439,70.21l92.626,45.948l1.011-160.939L289.901,233.497z M361.999,317.037
	l-52.166-25.877l0.281-44.861l52.488-25.22L361.999,317.037z"/>
<path fill="#FFFFFF" d="M162.425,105.541c5.589,37.835,31.431,58.431,74.188,58.431c48.587,0,75.346-26.583,75.346-74.854
	c0-48.271-26.759-74.854-75.346-74.854c-42.757,0-68.599,20.595-74.188,58.432c-5.588-37.836-31.43-58.432-74.187-58.432
	c-48.586,0-75.344,26.583-75.344,74.854c0,48.27,26.758,74.854,75.344,74.854C130.995,163.971,156.836,143.376,162.425,105.541z
	 M236.613,37.766c35.854,0,51.842,15.837,51.842,51.352c0,35.513-15.988,51.351-51.842,51.351s-51.843-15.837-51.843-51.351
	C184.77,53.604,200.759,37.766,236.613,37.766z M36.396,89.118c0-35.514,15.989-51.352,51.841-51.352
	c35.853,0,51.842,15.837,51.842,51.352c0,35.513-15.989,51.351-51.842,51.351C52.385,140.468,36.396,124.631,36.396,89.118z"/>
<path fill="#FFFFFF" d="M281.505,230.133c0-39.489-28.907-63.064-77.327-63.064c-16.697,0-34.159,4.953-45.432,15.445
	c-9.901-9.88-25.916-15.445-46.398-15.445c-48.419,0-77.327,23.575-77.327,63.064l1.183,88.461l0.184,0.987
	c3.146,16.921,11.99,28.717,26.285,35.06c11.454,5.082,24.631,5.974,37.375,6.836c28.998,1.964,46.501,3.148,46.501,40.237h23.503
	c0-37.089,17.504-38.273,46.502-40.236c12.734-0.862,25.902-1.753,37.351-6.825c14.29-6.33,23.138-18.105,26.297-34.997l1.235-11.14
	l0.058-0.789c0.057-1.427,0.085-2.79,0.085-4.169l-0.075-11.752V230.133z M257.019,315.757
	c-3.518,17.895-14.996,20.439-42.051,22.271c-15.493,1.049-31.514,2.133-44.818,10.429c-4.644,2.896-8.59,6.434-11.849,10.64
	c-3.259-4.206-7.205-7.744-11.849-10.64c-13.304-8.295-29.324-9.38-44.817-10.429c-26.813-1.815-38.335-4.334-41.958-21.812
	l-1.153-86.156c0.016-12.136,3.996-21.584,11.829-28.083c8.993-7.46,23.514-11.404,41.994-11.404
	c10.229,0,19.181,1.834,25.208,5.164c6.194,3.422,8.957,8.091,8.957,15.139h23.503c0-20.072,32.768-20.303,34.162-20.303
	c18.48,0,33.001,3.944,41.994,11.404c7.85,6.512,11.829,15.986,11.829,28.157v73.425l0.019,2.897L257.019,315.757z"/>
</svg>
